<svg width="82" height="21" viewBox="0 0 82 21" fill="none" xmlns="http://www.w3.org/2000/svg">
<path d="M6.1998 16.3229C5.27981 16.3229 4.45314 16.1162 3.7198 15.7029C2.98647 15.2762 2.40647 14.6629 1.9798 13.8629C1.55314 13.0629 1.3398 12.0962 1.3398 10.9629C1.3398 9.81623 1.55314 8.84957 1.9798 8.0629C2.4198 7.2629 3.00647 6.65623 3.7398 6.2429C4.47314 5.82957 5.29314 5.6229 6.1998 5.6229C7.19981 5.6229 8.09314 5.84957 8.8798 6.3029C9.6798 6.7429 10.3065 7.3629 10.7598 8.1629C11.2131 8.9629 11.4398 9.89623 11.4398 10.9629C11.4398 12.0162 11.2131 12.9496 10.7598 13.7629C10.3065 14.5629 9.6798 15.1896 8.8798 15.6429C8.09314 16.0962 7.19981 16.3229 6.1998 16.3229ZM0.779805 16.2229V1.3829H2.1998V8.8229L1.9998 10.9429L2.1398 13.0629V16.2229H0.779805ZM6.0998 15.0629C6.84647 15.0629 7.51314 14.8962 8.09981 14.5629C8.68647 14.2162 9.15314 13.7362 9.49981 13.1229C9.84647 12.4962 10.0198 11.7762 10.0198 10.9629C10.0198 10.1362 9.84647 9.41623 9.49981 8.8029C9.15314 8.18957 8.68647 7.71623 8.09981 7.3829C7.51314 7.03623 6.84647 6.8629 6.0998 6.8629C5.35314 6.8629 4.6798 7.03623 4.0798 7.3829C3.49314 7.71623 3.02647 8.18957 2.6798 8.8029C2.34647 9.41623 2.1798 10.1362 2.1798 10.9629C2.1798 11.7762 2.34647 12.4962 2.6798 13.1229C3.02647 13.7362 3.49314 14.2162 4.0798 14.5629C4.6798 14.8962 5.35314 15.0629 6.0998 15.0629ZM14.3345 16.2229V1.3829H15.7545V16.2229H14.3345ZM24.0456 16.3229C23.1523 16.3229 22.3723 16.1562 21.7056 15.8229C21.0389 15.4896 20.5189 14.9896 20.1456 14.3229C19.7856 13.6562 19.6056 12.8229 19.6056 11.8229V5.7229H21.0256V11.6629C21.0256 12.7829 21.2989 13.6296 21.8456 14.2029C22.4056 14.7629 23.1856 15.0429 24.1856 15.0429C24.9189 15.0429 25.5523 14.8962 26.0856 14.6029C26.6323 14.2962 27.0456 13.8562 27.3256 13.2829C27.6189 12.7096 27.7656 12.0229 27.7656 11.2229V5.7229H29.1856V16.2229H27.8256V13.3429L28.0456 13.8629C27.7123 14.6362 27.1923 15.2429 26.4856 15.6829C25.7923 16.1096 24.9789 16.3229 24.0456 16.3229ZM37.6031 16.3229C36.5098 16.3229 35.5498 16.0962 34.7231 15.6429C33.8964 15.1762 33.2498 14.5429 32.7831 13.7429C32.3164 12.9296 32.0831 12.0029 32.0831 10.9629C32.0831 9.9229 32.3031 9.0029 32.7431 8.2029C33.1964 7.4029 33.8098 6.77623 34.5831 6.3229C35.3698 5.85623 36.2498 5.6229 37.2231 5.6229C38.2098 5.6229 39.0831 5.84957 39.8431 6.3029C40.6164 6.7429 41.2231 7.36957 41.6631 8.1829C42.1031 8.9829 42.3231 9.90957 42.3231 10.9629C42.3231 11.0296 42.3164 11.1029 42.3031 11.1829C42.3031 11.2496 42.3031 11.3229 42.3031 11.4029H33.1631V10.3429H41.5431L40.9831 10.7629C40.9831 10.0029 40.8164 9.32957 40.4831 8.7429C40.1631 8.1429 39.7231 7.67623 39.1631 7.3429C38.6031 7.00957 37.9564 6.8429 37.2231 6.8429C36.5031 6.8429 35.8564 7.00957 35.2831 7.3429C34.7098 7.67623 34.2631 8.1429 33.9431 8.7429C33.6231 9.3429 33.4631 10.0296 33.4631 10.8029V11.0229C33.4631 11.8229 33.6364 12.5296 33.9831 13.1429C34.3431 13.7429 34.8364 14.2162 35.4631 14.5629C36.1031 14.8962 36.8298 15.0629 37.6431 15.0629C38.2831 15.0629 38.8764 14.9496 39.4231 14.7229C39.9831 14.4962 40.4631 14.1496 40.8631 13.6829L41.6631 14.6029C41.1964 15.1629 40.6098 15.5896 39.9031 15.8829C39.2098 16.1762 38.4431 16.3229 37.6031 16.3229Z" fill="#333333" style="fill:#333333;fill:color(display-p3 0.2000 0.2000 0.2000);fill-opacity:1;"/>
<path d="M51.0334 16.3829C50.1267 16.3829 49.3334 16.1829 48.6534 15.7829C47.9734 15.3829 47.4401 14.7762 47.0534 13.9629C46.6801 13.1362 46.4934 12.0962 46.4934 10.8429C46.4934 9.57623 46.6734 8.53623 47.0334 7.7229C47.3934 6.90957 47.9134 6.3029 48.5934 5.9029C49.2734 5.5029 50.0867 5.3029 51.0334 5.3029C52.0467 5.3029 52.9534 5.53623 53.7534 6.0029C54.5667 6.45623 55.2067 7.09623 55.6734 7.9229C56.1534 8.74957 56.3934 9.7229 56.3934 10.8429C56.3934 11.9762 56.1534 12.9562 55.6734 13.7829C55.2067 14.6096 54.5667 15.2496 53.7534 15.7029C52.9534 16.1562 52.0467 16.3829 51.0334 16.3829ZM44.6734 20.1029V5.4629H47.6534V7.6629L47.5934 10.8629L47.7934 14.0429V20.1029H44.6734ZM50.4934 13.8229C51.0134 13.8229 51.4734 13.7029 51.8734 13.4629C52.2867 13.2229 52.6134 12.8829 52.8534 12.4429C53.1067 11.9896 53.2334 11.4562 53.2334 10.8429C53.2334 10.2162 53.1067 9.6829 52.8534 9.2429C52.6134 8.8029 52.2867 8.4629 51.8734 8.2229C51.4734 7.9829 51.0134 7.8629 50.4934 7.8629C49.9734 7.8629 49.5067 7.9829 49.0934 8.2229C48.6801 8.4629 48.3534 8.8029 48.1134 9.2429C47.8734 9.6829 47.7534 10.2162 47.7534 10.8429C47.7534 11.4562 47.8734 11.9896 48.1134 12.4429C48.3534 12.8829 48.6801 13.2229 49.0934 13.4629C49.5067 13.7029 49.9734 13.8229 50.4934 13.8229ZM58.482 16.2229V5.4629H61.602V16.2229H58.482ZM60.042 3.9629C59.4687 3.9629 59.002 3.79623 58.642 3.4629C58.282 3.12957 58.102 2.71623 58.102 2.2229C58.102 1.72957 58.282 1.31623 58.642 0.9829C59.002 0.649566 59.4687 0.482899 60.042 0.482899C60.6153 0.482899 61.082 0.6429 61.442 0.9629C61.802 1.26957 61.982 1.66957 61.982 2.1629C61.982 2.6829 61.802 3.11623 61.442 3.4629C61.0953 3.79623 60.6287 3.9629 60.042 3.9629ZM64.4976 16.2229V1.3829H67.6176V16.2229H64.4976ZM75.6332 16.3829C74.4866 16.3829 73.4666 16.1429 72.5732 15.6629C71.6932 15.1829 70.9932 14.5296 70.4732 13.7029C69.9666 12.8629 69.7132 11.9096 69.7132 10.8429C69.7132 9.7629 69.9666 8.80957 70.4732 7.9829C70.9932 7.1429 71.6932 6.48957 72.5732 6.0229C73.4666 5.5429 74.4866 5.3029 75.6332 5.3029C76.7666 5.3029 77.7799 5.5429 78.6732 6.0229C79.5666 6.48957 80.2666 7.13623 80.7732 7.9629C81.2799 8.78957 81.5332 9.74957 81.5332 10.8429C81.5332 11.9096 81.2799 12.8629 80.7732 13.7029C80.2666 14.5296 79.5666 15.1829 78.6732 15.6629C77.7799 16.1429 76.7666 16.3829 75.6332 16.3829ZM75.6332 13.8229C76.1532 13.8229 76.6199 13.7029 77.0332 13.4629C77.4466 13.2229 77.7732 12.8829 78.0132 12.4429C78.2532 11.9896 78.3732 11.4562 78.3732 10.8429C78.3732 10.2162 78.2532 9.6829 78.0132 9.2429C77.7732 8.8029 77.4466 8.4629 77.0332 8.2229C76.6199 7.9829 76.1532 7.8629 75.6332 7.8629C75.1132 7.8629 74.6466 7.9829 74.2332 8.2229C73.8199 8.4629 73.4866 8.8029 73.2332 9.2429C72.9932 9.6829 72.8732 10.2162 72.8732 10.8429C72.8732 11.4562 72.9932 11.9896 73.2332 12.4429C73.4866 12.8829 73.8199 13.2229 74.2332 13.4629C74.6466 13.7029 75.1132 13.8229 75.6332 13.8229Z" fill="#0241FF" style="fill:#0241FF;fill:color(display-p3 0.0078 0.2549 1.0000);fill-opacity:1;"/>
</svg>
