<svg xmlns="http://www.w3.org/2000/svg" width="36" height="32" viewBox="0 0 36 32" fill="none">
  <path fill-rule="evenodd" clip-rule="evenodd" d="M2.70118 31.9459H3.50359C3.68471 31.8883 4.42529 31.8359 4.6953 31.7822C7.47978 31.2279 9.93217 30.7243 12.7961 30.3497C12.8652 29.4048 12.8101 28.2349 12.8118 27.2659C12.8126 26.7989 12.7751 26.1478 12.8116 25.7044C12.8267 25.5212 12.9471 25.586 13.427 25.5809C13.6479 25.5786 14.0013 25.5539 14.206 25.5852C14.2765 26.5638 14.187 28.3989 14.1863 29.5236C14.1861 29.9529 14.3736 30.3572 14.7426 30.0145L14.7396 27.1663C14.7409 26.749 14.7015 24.5143 14.7727 24.2989L16.1028 24.2838C16.1493 24.7122 16.1109 25.3606 16.1106 25.8055C16.1103 26.3144 16.1096 26.8233 16.1095 27.3322C16.1095 27.8317 16.1253 28.3599 16.1036 28.856C16.0838 29.3091 15.9294 29.8989 16.3835 30.0177C16.7082 29.8618 16.6558 29.5244 16.6518 29.1246C16.647 28.6465 16.6144 25.8438 16.6525 25.6063L18.0273 25.5693C18.0595 26.2152 17.9719 29.5428 18.0448 29.7545C18.1725 30.1253 18.4997 30.0227 18.5832 29.7642L18.5423 27.7305C18.5411 27.5415 18.6027 26.837 18.5761 26.7403C18.653 26.6407 18.5615 26.7206 18.6733 26.6828C18.7194 26.6673 18.7584 26.6647 18.8079 26.6633L19.506 26.6685C19.8371 26.6673 20.0801 26.7014 20.436 26.7014L20.4065 24.9078C20.4412 24.7856 20.3938 24.8557 20.4742 24.7905C20.5502 24.7787 20.7373 24.7581 20.8486 24.7788C21.0113 24.7055 21.5429 24.7227 21.7319 24.7043L22.2964 24.71C22.2969 24.4992 22.2574 24.2911 22.366 24.1793L22.3987 23.6002L23.7554 23.5406L23.7599 30.5128C25.9793 31.0507 27.9739 31.1773 30.0798 31.6073C30.5691 31.7072 31.1653 31.8294 31.6633 31.8887C31.7923 31.904 32.117 31.9209 32.2107 31.9459H33.1751L33.2708 31.8952C33.2939 31.886 33.3541 31.8705 33.3741 31.8645C34.5448 31.5123 33.9912 30.1541 33.6266 29.3839C32.325 26.6342 31.2606 23.6199 30.7642 20.5248C30.6691 19.9326 30.645 19.3664 30.5754 18.7535C30.49 18.0017 30.343 17.9096 29.7023 17.6709C29.2303 17.4951 28.7143 17.358 28.2149 17.1976C26.9974 16.8066 27.1067 17.5031 25.4661 18.0872C24.9828 18.2592 24.4695 18.4077 24.028 18.6098C23.2668 18.9582 22.1141 19.7507 21.3374 19.786C21.4294 19.018 22.8199 18.6561 22.8095 18.2352L22.7947 18.1859C22.0793 17.889 20.5885 19.7869 19.6338 19.2668C19.5378 18.2006 21.8702 18.1314 22.0735 17.2358C21.2882 16.9524 19.9474 17.9675 18.8932 17.755C18.8315 17.1261 19.6867 16.9388 20.1714 16.7805C20.5939 16.6426 21.6089 16.3931 21.7304 16.0472C20.846 15.4793 19.1554 16.4128 18.0844 15.848C18.0067 15.3668 18.5875 15.3091 18.9698 15.2499C19.4021 15.1828 19.8917 15.127 20.3373 15.1053C21.1065 15.0678 22.3568 15.067 22.8292 14.62C22.8228 13.8293 21.4572 13.5277 21.5742 12.7983C21.5934 12.6784 21.659 12.594 21.7318 12.5165C22.694 12.7104 22.2852 12.9629 23.1646 13.2259C23.7304 13.395 24.3218 13.4367 24.9265 13.5457C25.8611 13.7141 26.1671 13.9691 26.5269 14.0462C26.949 14.1365 28.0684 14.0753 28.5748 14.0776C29.9047 14.0838 31.2473 14.1736 32.4996 14.3786C33.0776 14.4732 33.6592 14.6046 34.2146 14.7605C34.5419 14.8523 35.5574 15.2585 35.8 15.2353L33.4044 14.073C32.4671 13.6865 30.9536 13.4427 30.6124 13.2924C30.5554 12.8517 30.8045 11.4855 30.8983 11.0292C31.3428 8.86836 32.0163 7.40117 32.9825 5.446C33.4779 4.44367 34.3365 3.00591 34.4844 1.83739C34.7673 -0.398026 32.3772 0.757201 31.3309 1.14338C27.4511 2.57541 22.5444 3.37761 18.2438 3.41877C16.6938 3.43363 14.5222 3.12892 13.3467 3.22468L14.244 3.55247C15.1827 3.87673 16.1963 4.16183 17.1754 4.39858C18.4975 4.71825 19.9664 5.02362 21.3598 5.24226C20.9906 5.36676 19.319 5.2964 18.8417 5.25999C16.4442 5.07721 14.5806 4.6245 12.2992 3.99939C10.1545 3.41173 6.63319 2.1219 4.60995 1.25913C3.77357 0.902494 1.11755 -0.374042 1.19269 1.51032C1.26974 3.44279 5.10285 8.83608 5.1083 13.2332C3.90637 13.2986 0.47174 14.5302 0 15.1881C0.842392 15.1277 2.39976 14.4809 3.33108 14.2576C4.52345 13.9718 5.96754 13.9652 7.24801 14.0234C7.80458 14.0487 8.70877 14.2453 9.20993 14.0609C9.47064 13.965 9.7005 13.833 9.93606 13.7236C10.7217 13.3588 11.8317 13.4373 12.6029 13.2038C13.1646 13.0337 13.4485 12.4551 14.0049 12.5514C14.534 13.3838 12.8552 13.7362 12.9661 14.6864C13.702 15.3086 17.264 14.7656 17.6369 15.7817C17.3334 16.1878 16.3361 16.0919 15.8175 16.0485C15.3113 16.0062 14.3653 15.7451 13.9637 16.0472C14.2187 16.7062 16.73 16.7597 16.8046 17.7061C15.9765 18.158 14.4708 16.9081 13.6211 17.2396C13.7684 17.7393 14.4504 17.9424 14.9573 18.1668C15.3887 18.3577 16.2402 18.7103 16.0411 19.3205C14.7916 19.4427 13.4345 17.925 12.8484 18.1896L12.8786 18.317C13.1705 18.8162 14.3383 19.1668 14.3843 19.782C13.5327 19.7719 12.5445 18.9776 11.6422 18.5976C10.6949 18.1985 9.68747 17.9781 8.87708 17.4387C8.24742 17.0195 8.30612 16.939 7.44508 17.2017C7.13213 17.2972 5.40187 17.7329 5.26719 17.9858L4.81675 20.4521C4.3457 23.2059 3.65758 25.6489 2.59196 28.0877C2.40198 28.5225 2.18414 29.027 2.01125 29.4668C1.82436 29.9421 1.55973 30.427 1.62 31.0511C1.69604 31.8385 2.48143 31.8483 2.70118 31.9459Z" fill="#0241FF" style="fill:#0241FF;fill:color(display-p3 0.0078 0.2549 1.0000);fill-opacity:1;"/>
</svg>