<svg width="182" height="59" viewBox="0 0 182 59" fill="none" xmlns="http://www.w3.org/2000/svg">
<path fill-rule="evenodd" clip-rule="evenodd" d="M5.5646 58.6218H7.03943C7.37233 58.516 8.73351 58.4198 9.22979 58.3209C14.3477 57.3023 18.8551 56.3766 24.1191 55.6881C24.246 53.9513 24.1447 51.801 24.1478 50.02C24.1493 49.1617 24.0804 47.965 24.1475 47.15C24.1752 46.8133 24.3966 46.9324 25.2785 46.9231C25.6847 46.9188 26.3341 46.8733 26.7105 46.9309C26.8401 48.7295 26.6754 52.1025 26.6742 54.1696C26.6738 54.9588 27.0184 55.7019 27.6967 55.0719L27.6912 49.837C27.6935 49.0699 27.6211 44.9626 27.752 44.5668L30.1968 44.539C30.2822 45.3263 30.2116 46.5181 30.2111 47.3358C30.2105 48.2712 30.2092 49.2066 30.2091 50.142C30.2089 51.0599 30.2381 52.0308 30.1982 52.9426C30.1618 53.7755 29.878 54.8595 30.7126 55.0779C31.3095 54.7912 31.2131 54.1712 31.2057 53.4363C31.1969 52.5576 31.137 47.4062 31.207 46.9697L33.7339 46.9017C33.7932 48.0888 33.6322 54.205 33.7662 54.5941C34.0009 55.2757 34.6021 55.087 34.7557 54.6118L34.6805 50.874C34.6783 50.5266 34.7915 49.2317 34.7426 49.054C34.884 48.8709 34.7158 49.0179 34.9213 48.9484C35.006 48.9197 35.0777 48.9151 35.1686 48.9124L36.4517 48.922C37.0604 48.9197 37.5069 48.9826 38.1611 48.9826L38.1069 45.6858C38.1706 45.4613 38.0836 45.5901 38.2314 45.4702C38.3711 45.4485 38.715 45.4107 38.9194 45.4488C39.2186 45.3141 40.1955 45.3456 40.5429 45.3119L41.5806 45.3223C41.5813 44.9349 41.5088 44.5524 41.7084 44.3468L41.7686 43.2825L44.2622 43.1731L44.2704 55.9878C48.3497 56.9764 52.0158 57.2092 55.8864 57.9996C56.7857 58.1832 57.8816 58.4077 58.7969 58.5167C59.0339 58.5449 59.6308 58.5759 59.803 58.6218H61.5756L61.7514 58.5287C61.7939 58.5117 61.9045 58.4833 61.9413 58.4723C64.093 57.825 63.0754 55.3286 62.4053 53.9129C60.0131 48.8589 58.0567 43.3188 57.1442 37.6299C56.9696 36.5414 56.9252 35.5008 56.7973 34.3743C56.6403 32.9925 56.3702 32.8232 55.1926 32.3846C54.325 32.0614 53.3766 31.8093 52.4586 31.5146C50.2209 30.796 50.4219 32.076 47.4063 33.1497C46.5182 33.4658 45.5746 33.7388 44.7633 34.1102C43.3641 34.7505 41.2454 36.2072 39.8179 36.272C39.9869 34.8605 42.5426 34.1953 42.5236 33.4216L42.4965 33.331C41.1814 32.7854 38.4414 36.2737 36.6867 35.3177C36.5103 33.358 40.7971 33.2309 41.1709 31.5847C39.7275 31.0639 37.263 32.9296 35.3254 32.539C35.2121 31.3832 36.7839 31.0389 37.6748 30.7479C38.4513 30.4944 40.3169 30.0359 40.5403 29.4001C38.9147 28.3563 35.8073 30.072 33.8389 29.0341C33.6961 28.1496 34.7636 28.0435 35.4662 27.9346C36.2608 27.8114 37.1608 27.7088 37.9796 27.6689C39.3935 27.6 41.6915 27.5986 42.5598 26.7769C42.5481 25.3236 40.038 24.7692 40.2531 23.4287C40.2884 23.2084 40.409 23.0532 40.5427 22.9107C42.3114 23.2672 41.56 23.7313 43.1763 24.2145C44.2162 24.5254 45.3032 24.6021 46.4146 24.8024C48.1324 25.1119 48.6948 25.5806 49.3562 25.7223C50.1319 25.8883 52.1895 25.7757 53.1202 25.7801C55.5645 25.7914 58.0323 25.9564 60.3339 26.3332C61.3963 26.5072 62.4652 26.7486 63.4862 27.0351C64.0877 27.2039 65.9542 27.9505 66.4 27.9078L61.997 25.7715C60.2742 25.0612 57.4924 24.6131 56.8653 24.3368C56.7605 23.5269 57.2183 21.0157 57.3908 20.177C58.2077 16.2055 59.4456 13.5088 61.2215 9.91518C62.132 8.0729 63.7101 5.43031 63.9819 3.28257C64.502 -0.826104 60.1091 1.2972 58.1859 2.00698C51.0548 4.63905 42.0363 6.11349 34.1318 6.18915C31.2831 6.21646 27.2915 5.6564 25.1311 5.83241L26.7802 6.43489C28.5055 7.03087 30.3686 7.55488 32.1682 7.99003C34.5982 8.57759 37.298 9.13886 39.8591 9.54071C39.1805 9.76954 36.108 9.64023 35.2308 9.57331C30.8242 9.23736 27.3989 8.40528 23.2057 7.25632C19.2637 6.1762 12.7916 3.8055 9.07292 2.21974C7.53565 1.56424 2.65391 -0.782022 2.79201 2.68143C2.93362 6.2333 9.97886 16.1461 9.98888 24.2279C7.77974 24.3483 1.46691 26.612 0.599854 27.8211C2.14817 27.71 5.0106 26.5212 6.72236 26.1109C8.91394 25.5855 11.5682 25.5735 13.9217 25.6805C14.9446 25.727 16.6065 26.0882 17.5277 25.7494C18.0068 25.5731 18.4293 25.3304 18.8623 25.1294C20.3063 24.4588 22.3465 24.6031 23.7639 24.1739C24.7962 23.8614 25.3181 22.798 26.3407 22.9749C27.3133 24.5048 24.2277 25.1525 24.4315 26.8989C25.7841 28.0426 32.3311 27.0446 33.0163 28.9121C32.4586 29.6586 30.6255 29.4823 29.6724 29.4026C28.7419 29.3247 27.0032 28.8449 26.2651 29.4001C26.7337 30.6113 31.3496 30.7097 31.4866 32.4491C29.9646 33.2799 27.1971 30.9825 25.6355 31.5918C25.906 32.5102 27.1596 32.8836 28.0914 33.2959C28.8842 33.6467 30.4493 34.2948 30.0832 35.4164C27.7868 35.6411 25.2925 32.8515 24.2152 33.3379L24.2706 33.5721C24.8072 34.4896 26.9535 35.1339 27.0381 36.2646C25.473 36.246 23.6566 34.7863 21.9982 34.0877C20.2571 33.3542 18.4054 32.9491 16.9159 31.9576C15.7586 31.1872 15.8665 31.0392 14.2839 31.522C13.7087 31.6975 10.5285 32.4984 10.2809 32.9632L9.45301 37.4963C8.58723 42.5579 7.32247 47.048 5.36387 51.5304C5.01468 52.3296 4.61429 53.2569 4.29652 54.0652C3.95302 54.939 3.46663 55.83 3.5774 56.9772C3.71716 58.4245 5.16077 58.4424 5.56467 58.6218H5.5646Z" fill="#000D33"/>
<path d="M90.0939 25.6021C91.3179 25.6021 92.3979 25.9081 93.3339 26.5201C94.2879 27.1321 95.0439 27.9781 95.6019 29.0581C96.1599 30.1201 96.4389 31.3531 96.4389 32.7571C96.4389 34.1251 96.1599 35.3581 95.6019 36.4561C95.0439 37.5541 94.2879 38.4181 93.3339 39.0481C92.3799 39.6781 91.3089 39.9931 90.1209 39.9931C89.4909 39.9931 88.8879 39.8941 88.3119 39.6961C87.7539 39.4981 87.2409 39.2371 86.7729 38.9131C86.3049 38.5711 85.8909 38.1751 85.5309 37.7251C85.1709 37.2751 84.8829 36.7891 84.6669 36.2671L85.1529 35.9161V38.9671C85.1529 39.2011 85.0719 39.3991 84.9099 39.5611C84.7659 39.7051 84.5769 39.7771 84.3429 39.7771C84.1089 39.7771 83.9109 39.7051 83.7489 39.5611C83.6049 39.3991 83.5329 39.2011 83.5329 38.9671V20.5801C83.5329 20.3461 83.6049 20.1571 83.7489 20.0131C83.8929 19.8511 84.0909 19.7701 84.3429 19.7701C84.5769 19.7701 84.7659 19.8511 84.9099 20.0131C85.0719 20.1571 85.1529 20.3461 85.1529 20.5801V29.6251L84.7749 29.4091C84.9549 28.8511 85.2159 28.3471 85.5579 27.8971C85.9179 27.4291 86.3319 27.0241 86.7999 26.6821C87.2679 26.3401 87.7809 26.0791 88.3389 25.8991C88.8969 25.7011 89.4819 25.6021 90.0939 25.6021ZM89.9589 27.1141C88.9869 27.1141 88.1319 27.3571 87.3939 27.8431C86.6559 28.3291 86.0709 28.9951 85.6389 29.8411C85.2249 30.6871 85.0179 31.6591 85.0179 32.7571C85.0179 33.8371 85.2249 34.8181 85.6389 35.7001C86.0709 36.5641 86.6559 37.2481 87.3939 37.7521C88.1319 38.2381 88.9869 38.4811 89.9589 38.4811C90.9129 38.4811 91.7499 38.2291 92.4699 37.7251C93.2079 37.2211 93.7929 36.5371 94.2249 35.6731C94.6569 34.7911 94.8729 33.8191 94.8729 32.7571C94.8729 31.6591 94.6569 30.6871 94.2249 29.8411C93.7929 28.9951 93.2079 28.3291 92.4699 27.8431C91.7499 27.3571 90.9129 27.1141 89.9589 27.1141ZM101.557 38.9131C101.557 39.1291 101.476 39.3181 101.314 39.4801C101.152 39.6421 100.963 39.7231 100.747 39.7231C100.513 39.7231 100.315 39.6421 100.153 39.4801C100.009 39.3181 99.9371 39.1291 99.9371 38.9131V20.5531C99.9371 20.3371 100.018 20.1481 100.18 19.9861C100.342 19.8241 100.531 19.7431 100.747 19.7431C100.981 19.7431 101.17 19.8241 101.314 19.9861C101.476 20.1481 101.557 20.3371 101.557 20.5531V38.9131ZM116.312 26.0071C116.546 26.0071 116.735 26.0881 116.879 26.2501C117.041 26.4121 117.122 26.6011 117.122 26.8171V34.4311C117.122 36.2131 116.618 37.5721 115.61 38.5081C114.602 39.4441 113.243 39.9121 111.533 39.9121C109.841 39.9121 108.491 39.4441 107.483 38.5081C106.493 37.5721 105.998 36.2131 105.998 34.4311V26.8171C105.998 26.6011 106.07 26.4121 106.214 26.2501C106.376 26.0881 106.574 26.0071 106.808 26.0071C107.042 26.0071 107.231 26.0881 107.375 26.2501C107.537 26.4121 107.618 26.6011 107.618 26.8171V34.4311C107.618 35.7271 107.96 36.7171 108.644 37.4011C109.346 38.0671 110.309 38.4001 111.533 38.4001C112.775 38.4001 113.747 38.0671 114.449 37.4011C115.151 36.7171 115.502 35.7271 115.502 34.4311V26.8171C115.502 26.6011 115.574 26.4121 115.718 26.2501C115.862 26.0881 116.06 26.0071 116.312 26.0071ZM127.499 39.9931C126.113 39.9931 124.889 39.6961 123.827 39.1021C122.765 38.5081 121.937 37.6801 121.343 36.6181C120.749 35.5561 120.452 34.3141 120.452 32.8921C120.452 31.3621 120.749 30.0571 121.343 28.9771C121.955 27.8971 122.738 27.0691 123.692 26.4931C124.664 25.8991 125.69 25.6021 126.77 25.6021C127.562 25.6021 128.327 25.7461 129.065 26.0341C129.821 26.3041 130.487 26.7181 131.063 27.2761C131.639 27.8161 132.107 28.4821 132.467 29.2741C132.827 30.0661 133.016 30.9841 133.034 32.0281C133.034 32.2441 132.953 32.4331 132.791 32.5951C132.629 32.7391 132.44 32.8111 132.224 32.8111H121.397L121.073 31.3531H131.711L131.36 31.6771V31.1371C131.27 30.2911 130.991 29.5711 130.523 28.9771C130.055 28.3831 129.488 27.9331 128.822 27.6271C128.174 27.3211 127.49 27.1681 126.77 27.1681C126.23 27.1681 125.672 27.2761 125.096 27.4921C124.538 27.7081 124.025 28.0501 123.557 28.5181C123.107 28.9681 122.738 29.5531 122.45 30.2731C122.162 30.9751 122.018 31.8121 122.018 32.7841C122.018 33.8461 122.234 34.8091 122.666 35.6731C123.098 36.5371 123.719 37.2211 124.529 37.7251C125.339 38.2291 126.32 38.4811 127.472 38.4811C128.084 38.4811 128.642 38.3911 129.146 38.2111C129.65 38.0311 130.091 37.7971 130.469 37.5091C130.865 37.2031 131.189 36.8881 131.441 36.5641C131.639 36.4021 131.828 36.3211 132.008 36.3211C132.206 36.3211 132.368 36.3931 132.494 36.5371C132.638 36.6811 132.71 36.8431 132.71 37.0231C132.71 37.2391 132.62 37.4281 132.44 37.5901C131.9 38.2381 131.198 38.8051 130.334 39.2911C129.47 39.7591 128.525 39.9931 127.499 39.9931ZM143.474 25.0081C144.734 25.0081 145.859 25.3321 146.849 25.9801C147.857 26.6101 148.649 27.4831 149.225 28.5991C149.819 29.7151 150.116 31.0111 150.116 32.4871C150.116 33.9631 149.819 35.2681 149.225 36.4021C148.649 37.5181 147.866 38.4001 146.876 39.0481C145.904 39.6781 144.806 39.9931 143.582 39.9931C142.862 39.9931 142.187 39.8761 141.557 39.6421C140.927 39.4081 140.369 39.1111 139.883 38.7511C139.415 38.3911 139.046 38.0311 138.776 37.6711C138.524 37.2931 138.398 36.9781 138.398 36.7261L139.235 36.3751V43.4761C139.235 43.9441 139.082 44.3311 138.776 44.6371C138.47 44.9611 138.083 45.1231 137.615 45.1231C137.147 45.1231 136.76 44.9701 136.454 44.6641C136.148 44.3581 135.995 43.9621 135.995 43.4761V26.9251C135.995 26.4571 136.148 26.0701 136.454 25.7641C136.76 25.4401 137.147 25.2781 137.615 25.2781C138.083 25.2781 138.47 25.4401 138.776 25.7641C139.082 26.0701 139.235 26.4571 139.235 26.9251V28.2481L138.776 28.0051C138.776 27.7711 138.902 27.4921 139.154 27.1681C139.406 26.8261 139.748 26.4931 140.18 26.1691C140.612 25.8271 141.107 25.5481 141.665 25.3321C142.241 25.1161 142.844 25.0081 143.474 25.0081ZM143.069 27.9781C142.277 27.9781 141.584 28.1761 140.99 28.5721C140.396 28.9681 139.928 29.5081 139.586 30.1921C139.262 30.8581 139.1 31.6231 139.1 32.4871C139.1 33.3331 139.262 34.1071 139.586 34.8091C139.928 35.4931 140.396 36.0331 140.99 36.4291C141.584 36.8251 142.277 37.0231 143.069 37.0231C143.861 37.0231 144.545 36.8251 145.121 36.4291C145.715 36.0331 146.174 35.4931 146.498 34.8091C146.84 34.1071 147.011 33.3331 147.011 32.4871C147.011 31.6231 146.84 30.8581 146.498 30.1921C146.174 29.5081 145.715 28.9681 145.121 28.5721C144.545 28.1761 143.861 27.9781 143.069 27.9781ZM155.868 38.0761C155.868 38.5441 155.715 38.9401 155.409 39.2641C155.103 39.5701 154.716 39.7231 154.248 39.7231C153.78 39.7231 153.393 39.5701 153.087 39.2641C152.781 38.9401 152.628 38.5441 152.628 38.0761V26.9251C152.628 26.4571 152.781 26.0701 153.087 25.7641C153.393 25.4401 153.78 25.2781 154.248 25.2781C154.716 25.2781 155.103 25.4401 155.409 25.7641C155.715 26.0701 155.868 26.4571 155.868 26.9251V38.0761ZM154.221 23.5231C153.609 23.5231 153.177 23.4241 152.925 23.2261C152.673 23.0281 152.547 22.6771 152.547 22.1731V21.6601C152.547 21.1381 152.682 20.7871 152.952 20.6071C153.24 20.4091 153.672 20.3101 154.248 20.3101C154.878 20.3101 155.319 20.4091 155.571 20.6071C155.823 20.8051 155.949 21.1561 155.949 21.6601V22.1731C155.949 22.6951 155.814 23.0551 155.544 23.2531C155.274 23.4331 154.833 23.5231 154.221 23.5231ZM162.708 38.0761C162.708 38.5441 162.546 38.9401 162.222 39.2641C161.916 39.5701 161.529 39.7231 161.061 39.7231C160.611 39.7231 160.233 39.5701 159.927 39.2641C159.621 38.9401 159.468 38.5441 159.468 38.0761V21.3901C159.468 20.9221 159.621 20.5351 159.927 20.2291C160.251 19.9051 160.647 19.7431 161.115 19.7431C161.583 19.7431 161.961 19.9051 162.249 20.2291C162.555 20.5351 162.708 20.9221 162.708 21.3901V38.0761ZM180.353 32.5141C180.353 33.9901 180.02 35.2951 179.354 36.4291C178.706 37.5451 177.824 38.4181 176.708 39.0481C175.61 39.6781 174.377 39.9931 173.009 39.9931C171.641 39.9931 170.399 39.6781 169.283 39.0481C168.185 38.4181 167.303 37.5451 166.637 36.4291C165.989 35.2951 165.665 33.9901 165.665 32.5141C165.665 31.0381 165.989 29.7421 166.637 28.6261C167.303 27.4921 168.185 26.6101 169.283 25.9801C170.399 25.3321 171.641 25.0081 173.009 25.0081C174.377 25.0081 175.61 25.3321 176.708 25.9801C177.824 26.6101 178.706 27.4921 179.354 28.6261C180.02 29.7421 180.353 31.0381 180.353 32.5141ZM177.113 32.5141C177.113 31.5961 176.924 30.8041 176.546 30.1381C176.186 29.4541 175.691 28.9231 175.061 28.5451C174.449 28.1671 173.765 27.9781 173.009 27.9781C172.253 27.9781 171.56 28.1671 170.93 28.5451C170.318 28.9231 169.823 29.4541 169.445 30.1381C169.085 30.8041 168.905 31.5961 168.905 32.5141C168.905 33.4141 169.085 34.2061 169.445 34.8901C169.823 35.5561 170.318 36.0781 170.93 36.4561C171.56 36.8341 172.253 37.0231 173.009 37.0231C173.765 37.0231 174.449 36.8341 175.061 36.4561C175.691 36.0781 176.186 35.5561 176.546 34.8901C176.924 34.2061 177.113 33.4141 177.113 32.5141Z" fill="#000D33"/>
</svg>
