<svg width="285" height="285" viewBox="0 0 285 285" fill="none" xmlns="http://www.w3.org/2000/svg">
<path d="M0 142.5C0 63.7994 63.7994 0 142.5 0L241.818 0C265.667 0 285 19.3332 285 43.1818V142.5C285 221.201 221.201 285 142.5 285C63.7994 285 0 221.201 0 142.5Z" fill="#0241FF"/>
<path opacity="0.5" d="M191.965 154.576L193.923 158.553C194.902 160.51 197.41 162.346 199.49 162.713L202.12 163.141C210.134 164.487 211.969 170.359 206.28 176.11L203.833 178.557C202.181 180.208 201.325 183.389 201.814 185.714L202.12 187.182C204.323 196.848 199.184 200.579 190.803 195.502L189.029 194.401C186.888 193.116 183.34 193.116 181.199 194.401L179.425 195.502C170.983 200.579 165.905 196.848 168.107 187.182L168.413 185.714C168.903 183.451 168.046 180.208 166.394 178.557L163.948 176.11C158.258 170.298 160.094 164.487 168.107 163.141L170.738 162.713C172.879 162.346 175.326 160.51 176.305 158.553L178.262 154.576C182.055 146.93 188.173 146.93 191.965 154.576Z" fill="white"/>
<path d="M174.041 75.4175H122.777C100.509 75.4175 87.2345 88.6923 87.2345 110.96V162.224C87.2345 184.491 100.509 197.766 122.777 197.766H155.077C157.218 197.766 158.747 195.564 158.502 193.423C158.258 191.098 158.38 188.345 159.114 185.164C159.237 184.736 159.114 184.246 158.747 183.879L157.401 182.534C152.202 177.273 150.305 170.91 152.14 165.099C154.037 159.349 159.298 155.311 166.577 154.088L168.413 153.782L170.064 150.478C173.429 143.627 178.935 139.65 185.113 139.65C191.292 139.65 196.798 143.627 200.162 150.478L201.08 152.375C201.508 153.292 202.364 153.904 203.343 154.088C203.894 154.21 204.444 154.332 204.995 154.455C207.136 155.005 209.583 153.292 209.583 151.029V110.96C209.583 88.6923 196.308 75.4175 174.041 75.4175ZM174.469 117.995L160.338 136.225C158.564 138.488 156.056 139.956 153.18 140.262C150.366 140.629 147.491 139.834 145.289 138.06L134.094 129.373C133.666 129.006 133.176 129.006 132.932 129.067C132.687 129.067 132.259 129.19 131.892 129.679L117.332 148.582C116.415 149.744 115.069 150.356 113.662 150.356C112.683 150.356 111.704 150.05 110.848 149.377C108.829 147.848 108.462 144.973 109.991 142.954L124.551 124.051C126.325 121.788 128.833 120.319 131.708 119.952C134.583 119.585 137.397 120.381 139.661 122.155L150.856 130.964C151.284 131.331 151.712 131.27 152.018 131.27C152.263 131.27 152.691 131.147 153.058 130.658L167.189 112.428C168.719 110.409 171.594 110.042 173.613 111.633C175.692 113.162 175.998 116.037 174.469 117.995Z" fill="white"/>
</svg>
