<svg width="34" height="35" viewBox="0 0 34 35" fill="none" xmlns="http://www.w3.org/2000/svg">
<path d="M28.3333 9.7769C30.4849 9.7769 32.2292 8.03267 32.2292 5.88106C32.2292 3.72945 30.4849 1.98523 28.3333 1.98523C26.1817 1.98523 24.4375 3.72945 24.4375 5.88106C24.4375 8.03267 26.1817 9.7769 28.3333 9.7769Z" fill="#000D33"/>
<path d="M26.9735 11.7602C24.7493 11.2786 22.936 9.46523 22.4543 7.24106C22.2702 6.3769 22.256 5.54106 22.4118 4.74773C22.596 3.8694 21.9443 3.04773 21.0377 3.04773H9.91683C6.00683 3.04773 2.8335 6.22106 2.8335 10.1311V19.9769C2.8335 23.8869 6.00683 27.0602 9.91683 27.0602H12.0418C12.4385 27.0602 12.9485 27.3152 13.1752 27.6269L15.3002 30.4461C16.2352 31.6927 17.7652 31.6927 18.7002 30.4461L20.8252 27.6269C21.0943 27.2727 21.5052 27.0602 21.9585 27.0602H24.0977C28.0077 27.0602 31.1668 23.9011 31.1668 19.9911V13.1769C31.1668 12.2844 30.3452 11.6327 29.4668 11.8027C28.6735 11.9444 27.8377 11.9444 26.9735 11.7602ZM11.3335 17.2144C10.5402 17.2144 9.91683 16.5769 9.91683 15.7977C9.91683 15.0186 10.5402 14.3811 11.3335 14.3811C12.1127 14.3811 12.7502 15.0186 12.7502 15.7977C12.7502 16.5769 12.1268 17.2144 11.3335 17.2144ZM17.0002 17.2144C16.2068 17.2144 15.5835 16.5769 15.5835 15.7977C15.5835 15.0186 16.2068 14.3811 17.0002 14.3811C17.7793 14.3811 18.4168 15.0186 18.4168 15.7977C18.4168 16.5769 17.7935 17.2144 17.0002 17.2144ZM22.6668 17.2144C21.8735 17.2144 21.2502 16.5769 21.2502 15.7977C21.2502 15.0186 21.8735 14.3811 22.6668 14.3811C23.446 14.3811 24.0835 15.0186 24.0835 15.7977C24.0835 16.5769 23.4602 17.2144 22.6668 17.2144Z" fill="#000D33"/>
</svg>
