<svg xmlns="http://www.w3.org/2000/svg" width="20" height="21" viewBox="0 0 20 21" fill="none">
  <path d="M14.6667 5.25116L9.95834 2.71782C9.45834 2.45116 8.86667 2.45116 8.36667 2.71782L3.66667 5.25116C3.325 5.44282 3.10834 5.80949 3.10834 6.20949C3.10834 6.61782 3.31667 6.98449 3.66667 7.16782L8.375 9.70116C8.625 9.83449 8.9 9.90116 9.16667 9.90116C9.43334 9.90116 9.71667 9.83449 9.95834 9.70116L14.6667 7.16782C15.0083 6.98449 15.225 6.61782 15.225 6.20949C15.225 5.80949 15.0083 5.44282 14.6667 5.25116Z" fill="#666666"/>
  <path d="M7.6 10.5845L3.225 8.40113C2.88334 8.22613 2.5 8.25113 2.175 8.44279C1.85834 8.64279 1.66667 8.98446 1.66667 9.35946V13.4928C1.66667 14.2095 2.06667 14.8511 2.70834 15.1761L7.08334 17.3595C7.23334 17.4345 7.4 17.4761 7.56667 17.4761C7.75834 17.4761 7.95834 17.4178 8.13334 17.3178C8.45001 17.1178 8.64167 16.7761 8.64167 16.4011V12.2678C8.63334 11.5511 8.23334 10.9095 7.6 10.5845Z" fill="#666666"/>
  <path d="M16.6667 9.35946V11.4095C16.2667 11.2928 15.8417 11.2428 15.4167 11.2428C14.2833 11.2428 13.175 11.6345 12.3 12.3345C11.1 13.2761 10.4167 14.7011 10.4167 16.2428C10.4167 16.6511 10.4667 17.0595 10.575 17.4511C10.45 17.4345 10.325 17.3845 10.2083 17.3095C9.89168 17.1178 9.70001 16.7761 9.70001 16.4011V12.2678C9.70001 11.5511 10.1 10.9095 10.7333 10.5845L15.1083 8.40113C15.45 8.22613 15.8333 8.25113 16.1583 8.44279C16.475 8.64279 16.6667 8.98446 16.6667 9.35946Z" fill="#666666"/>
  <path d="M18.3167 13.8678C17.6333 13.0261 16.5917 12.4928 15.4167 12.4928C14.5333 12.4928 13.7167 12.8011 13.075 13.3178C12.2083 14.0011 11.6667 15.0595 11.6667 16.2428C11.6667 17.4178 12.2 18.4595 13.0417 19.1428C13.6833 19.6761 14.5167 19.9928 15.4167 19.9928C16.3667 19.9928 17.225 19.6345 17.8917 19.0595C18.6667 18.3678 19.1667 17.3678 19.1667 16.2428C19.1667 15.3428 18.85 14.5095 18.3167 13.8678ZM16.275 16.4761C16.275 16.6928 16.1583 16.9011 15.975 17.0095L14.8 17.7095C14.7 17.7678 14.5917 17.8011 14.475 17.8011C14.2667 17.8011 14.0583 17.6928 13.9417 17.5011C13.7667 17.2011 13.8583 16.8178 14.1583 16.6428L15.025 16.1261V15.0761C15.025 14.7345 15.3083 14.4511 15.65 14.4511C15.9917 14.4511 16.275 14.7345 16.275 15.0761V16.4761Z" fill="#666666"/>
</svg>