<svg xmlns="http://www.w3.org/2000/svg" width="21" height="21" viewBox="0 0 21 21" fill="none">
  <path d="M10.7523 2.16666C6.15228 2.16666 2.41895 5.89999 2.41895 10.5C2.41895 15.1 6.15228 18.8333 10.7523 18.8333C15.3523 18.8333 19.0856 15.1 19.0856 10.5C19.0856 5.89999 15.3523 2.16666 10.7523 2.16666ZM14.1106 10.9417L11.6106 13.4417C11.4856 13.5667 11.3273 13.625 11.1689 13.625C11.0106 13.625 10.8523 13.5667 10.7273 13.4417C10.4856 13.2 10.4856 12.8 10.7273 12.5583L12.1606 11.125H7.83561C7.49395 11.125 7.21061 10.8417 7.21061 10.5C7.21061 10.1583 7.49395 9.87499 7.83561 9.87499H12.1606L10.7273 8.44166C10.4856 8.19999 10.4856 7.79999 10.7273 7.55832C10.9689 7.31666 11.3689 7.31666 11.6106 7.55832L14.1106 10.0583C14.3523 10.3 14.3523 10.7 14.1106 10.9417Z" fill="white" style="fill:white;fill-opacity:1;"/>
</svg>