<svg xmlns="http://www.w3.org/2000/svg" width="21" height="21" viewBox="0 0 21 21" fill="none">
  <path d="M10.1595 2.02271C8.5345 2.02271 7.01784 2.48937 5.74284 3.28937L11.4595 9.01437L11.4678 6.73104C11.4678 6.38937 11.7512 6.10604 12.0928 6.10604C12.4428 6.10604 12.7178 6.38937 12.7178 6.73104L12.7095 10.5227C12.7095 10.781 12.5512 11.006 12.3178 11.0977C12.2428 11.131 12.1595 11.1477 12.0845 11.1477C11.9178 11.1477 11.7595 11.081 11.6428 10.9644L4.81784 4.13104C4.78451 4.0977 4.75951 4.06437 4.73451 4.03104C2.95117 5.56437 1.82617 7.83104 1.82617 10.356C1.82617 14.956 5.55951 18.6894 10.1595 18.6894C11.7845 18.6894 13.3012 18.2227 14.5762 17.4227L8.85951 11.6977L8.85117 13.981C8.85117 14.3227 8.56784 14.606 8.22617 14.606C7.87617 14.606 7.60117 14.3227 7.60117 13.981L7.60951 10.1894C7.60951 9.93104 7.76784 9.70604 8.00117 9.61437C8.22617 9.51437 8.50117 9.56437 8.67617 9.74771L15.5012 16.581C15.5345 16.6144 15.5595 16.6477 15.5845 16.681C17.3678 15.1477 18.4928 12.881 18.4928 10.356C18.4928 5.75604 14.7595 2.02271 10.1595 2.02271Z" fill="#000D33" style="fill:#000D33;fill:color(display-p3 0.0000 0.0498 0.2000);fill-opacity:1;"/>
</svg>