<svg xmlns="http://www.w3.org/2000/svg" width="21" height="21" viewBox="0 0 21 21" fill="none">
  <path d="M13.6238 1.99683H6.64049C3.60716 1.99683 1.79883 3.80516 1.79883 6.83849V13.8135C1.79883 16.8552 3.60716 18.6635 6.64049 18.6635H13.6155C16.6488 18.6635 18.4572 16.8552 18.4572 13.8218V6.83849C18.4655 3.80516 16.6572 1.99683 13.6238 1.99683ZM14.5072 10.6052C14.5072 10.9468 14.2238 11.2302 13.8822 11.2302C13.5405 11.2302 13.2572 10.9468 13.2572 10.6052V8.08849L6.82383 14.5218C6.69883 14.6468 6.54049 14.7052 6.38216 14.7052C6.22383 14.7052 6.06549 14.6468 5.94049 14.5218C5.69883 14.2802 5.69883 13.8802 5.94049 13.6385L12.3738 7.20516H9.85716C9.51549 7.20516 9.23216 6.92183 9.23216 6.58016C9.23216 6.23849 9.51549 5.95516 9.85716 5.95516H13.8822C14.2238 5.95516 14.5072 6.23849 14.5072 6.58016V10.6052Z" fill="#000D33" style="fill:#000D33;fill:color(display-p3 0.0000 0.0498 0.2000);fill-opacity:1;"/>
</svg>