<svg xmlns="http://www.w3.org/2000/svg" width="21" height="20" viewBox="0 0 21 20" fill="none">
  <path d="M13.7483 1.66675H6.76501C3.73167 1.66675 1.92334 3.47508 1.92334 6.50841V13.4834C1.92334 16.5251 3.73167 18.3334 6.76501 18.3334H13.74C16.7733 18.3334 18.5817 16.5251 18.5817 13.4917V6.50841C18.59 3.47508 16.7817 1.66675 13.7483 1.66675ZM14.4233 14.3751H6.09001C5.74834 14.3751 5.46501 14.0917 5.46501 13.7501C5.46501 13.4084 5.74834 13.1251 6.09001 13.1251H14.4233C14.765 13.1251 15.0483 13.4084 15.0483 13.7501C15.0483 14.0917 14.765 14.3751 14.4233 14.3751ZM14.4233 10.6251H6.09001C5.74834 10.6251 5.46501 10.3417 5.46501 10.0001C5.46501 9.65841 5.74834 9.37508 6.09001 9.37508H14.4233C14.765 9.37508 15.0483 9.65841 15.0483 10.0001C15.0483 10.3417 14.765 10.6251 14.4233 10.6251ZM14.4233 6.87508H6.09001C5.74834 6.87508 5.46501 6.59175 5.46501 6.25008C5.46501 5.90841 5.74834 5.62508 6.09001 5.62508H14.4233C14.765 5.62508 15.0483 5.90841 15.0483 6.25008C15.0483 6.59175 14.765 6.87508 14.4233 6.87508Z" fill="#505BDA" style="fill:#505BDA;fill:color(display-p3 0.3137 0.3569 0.8549);fill-opacity:1;"/>
</svg>