<svg xmlns="http://www.w3.org/2000/svg" width="21" height="20" viewBox="0 0 21 20" fill="none">
  <path d="M11.3524 10.4833V12.1333C11.3524 12.7083 10.8857 13.175 10.3108 13.175C9.73575 13.175 9.26908 12.7083 9.26908 12.1333V10.4833C8.96908 10.3 8.73575 10.0333 8.56908 9.71667H2.81075C2.35242 9.71667 1.97742 10.0917 1.97742 10.55V13.4917C1.97742 16.1667 4.14408 18.3333 6.81908 18.3333H13.7941C16.4774 18.3333 18.6441 16.1667 18.6441 13.4917V10.55C18.6441 10.0917 18.2691 9.71667 17.8108 9.71667H12.0524C11.8857 10.0333 11.6524 10.3 11.3524 10.4833Z" fill="#505BDA" style="fill:#505BDA;fill:color(display-p3 0.3137 0.3569 0.8549);fill-opacity:1;"/>
  <path d="M13.8024 1.66663H6.81908C4.14408 1.66663 1.97742 3.83329 1.97742 6.50829V7.63329C1.97742 8.09163 2.35242 8.46663 2.81075 8.46663H8.36908C8.56075 7.36663 9.65242 6.58329 10.8441 6.89996C11.5108 7.07496 12.0524 7.61663 12.2274 8.28329C12.2441 8.34163 12.2441 8.40829 12.2524 8.46663H17.8108C18.2691 8.46663 18.6441 8.09163 18.6441 7.63329V6.50829C18.6441 3.83329 16.4774 1.66663 13.8024 1.66663Z" fill="#505BDA" style="fill:#505BDA;fill:color(display-p3 0.3137 0.3569 0.8549);fill-opacity:1;"/>
</svg>