<svg xmlns="http://www.w3.org/2000/svg" width="16" height="15" viewBox="0 0 16 15" fill="none">
  <path d="M8 1.25C4.55625 1.25 1.75 4.05625 1.75 7.5C1.75 10.9438 4.55625 13.75 8 13.75C11.4438 13.75 14.25 10.9438 14.25 7.5C14.25 4.05625 11.4438 1.25 8 1.25ZM10.1 8.9375C10.2812 9.11875 10.2812 9.41875 10.1 9.6C10.0062 9.69375 9.8875 9.7375 9.76875 9.7375C9.65 9.7375 9.53125 9.69375 9.4375 9.6L8 8.1625L6.5625 9.6C6.46875 9.69375 6.35 9.7375 6.23125 9.7375C6.1125 9.7375 5.99375 9.69375 5.9 9.6C5.71875 9.41875 5.71875 9.11875 5.9 8.9375L7.3375 7.5L5.9 6.0625C5.71875 5.88125 5.71875 5.58125 5.9 5.4C6.08125 5.21875 6.38125 5.21875 6.5625 5.4L8 6.8375L9.4375 5.4C9.61875 5.21875 9.91875 5.21875 10.1 5.4C10.2812 5.58125 10.2812 5.88125 10.1 6.0625L8.6625 7.5L10.1 8.9375Z" fill="#F44336" style="fill:#F44336;fill:color(display-p3 0.9569 0.2627 0.2118);fill-opacity:1;"/>
</svg>