<svg xmlns="http://www.w3.org/2000/svg" width="66" height="66" viewBox="0 0 66 66" fill="none">
  <path d="M32.917 60.5C48.1048 60.5 60.417 48.1878 60.417 33C60.417 17.8122 48.1048 5.5 32.917 5.5C17.7292 5.5 5.41699 17.8122 5.41699 33C5.41699 48.1878 17.7292 60.5 32.917 60.5Z" stroke="#292D32" style="stroke:#292D32;stroke:color(display-p3 0.1608 0.1765 0.1961);stroke-opacity:1;" stroke-width="4" stroke-linecap="round" stroke-linejoin="round"/>
  <path d="M33 45.375C39.8345 45.375 45.375 39.8345 45.375 33C45.375 26.1655 39.8345 20.625 33 20.625C26.1655 20.625 20.625 26.1655 20.625 33C20.625 39.8345 26.1655 45.375 33 45.375Z" stroke="#292D32" style="stroke:#292D32;stroke:color(display-p3 0.1608 0.1765 0.1961);stroke-opacity:1;" stroke-width="4" stroke-linecap="round" stroke-linejoin="round"/>
  <path d="M13.4766 13.5574L23.2116 23.2649" stroke="#292D32" style="stroke:#292D32;stroke:color(display-p3 0.1608 0.1765 0.1961);stroke-opacity:1;" stroke-width="4" stroke-linecap="round" stroke-linejoin="round"/>
  <path d="M13.4766 52.4426L23.2116 42.7351" stroke="#292D32" style="stroke:#292D32;stroke:color(display-p3 0.1608 0.1765 0.1961);stroke-opacity:1;" stroke-width="4" stroke-linecap="round" stroke-linejoin="round"/>
  <path d="M52.3873 52.4426L42.6523 42.7351" stroke="#292D32" style="stroke:#292D32;stroke:color(display-p3 0.1608 0.1765 0.1961);stroke-opacity:1;" stroke-width="4" stroke-linecap="round" stroke-linejoin="round"/>
  <path d="M52.3873 13.5576L42.6523 23.2651" stroke="#292D32" style="stroke:#292D32;stroke:color(display-p3 0.1608 0.1765 0.1961);stroke-opacity:1;" stroke-width="4" stroke-linecap="round" stroke-linejoin="round"/>
</svg>