<svg xmlns="http://www.w3.org/2000/svg" width="21" height="20" viewBox="0 0 21 20" fill="none">
  <path d="M14.4233 3.33325H6.09001C3.59001 3.33325 1.92334 4.58325 1.92334 7.49992V10.4666C1.92334 10.7749 2.24001 10.9666 2.51501 10.8416C3.33167 10.4666 4.27334 10.3249 5.26501 10.4999C7.45667 10.8916 9.06501 12.9249 9.00667 15.1499C8.99834 15.4999 8.94834 15.8416 8.85667 16.1749C8.79001 16.4333 8.99834 16.6749 9.26501 16.6749H14.4233C16.9233 16.6749 18.59 15.4249 18.59 12.5083V7.49992C18.59 4.58325 16.9233 3.33325 14.4233 3.33325ZM10.2567 12.0833C9.10667 12.0833 8.17334 11.1499 8.17334 9.99992C8.17334 8.84992 9.10667 7.91659 10.2567 7.91659C11.4067 7.91659 12.34 8.84992 12.34 9.99992C12.34 11.1499 11.4067 12.0833 10.2567 12.0833ZM16.2983 11.6666C16.2983 12.0083 16.015 12.2916 15.6733 12.2916C15.3317 12.2916 15.0483 12.0083 15.0483 11.6666V8.33325C15.0483 7.99159 15.3317 7.70825 15.6733 7.70825C16.015 7.70825 16.2983 7.99159 16.2983 8.33325V11.6666Z" fill="#000D33" style="fill:#000D33;fill:color(display-p3 0.0000 0.0498 0.2000);fill-opacity:1;"/>
  <path d="M4.42367 11.6667C2.582 11.6667 1.09033 13.1584 1.09033 15.0001C1.09033 15.6251 1.26533 16.2167 1.57367 16.7167C2.14867 17.6834 3.207 18.3334 4.42367 18.3334C5.64033 18.3334 6.69867 17.6834 7.27367 16.7167C7.582 16.2167 7.757 15.6251 7.757 15.0001C7.757 13.1584 6.26533 11.6667 4.42367 11.6667ZM5.66533 15.6084H5.04867V16.2584C5.04867 16.6001 4.76533 16.8834 4.42367 16.8834C4.082 16.8834 3.79867 16.6001 3.79867 16.2584V15.6084H3.182C2.84033 15.6084 2.557 15.3251 2.557 14.9834C2.557 14.6417 2.84033 14.3584 3.182 14.3584H3.79867V13.7667C3.79867 13.4251 4.082 13.1417 4.42367 13.1417C4.76533 13.1417 5.04867 13.4251 5.04867 13.7667V14.3584H5.66533C6.007 14.3584 6.29033 14.6417 6.29033 14.9834C6.29033 15.3251 6.01533 15.6084 5.66533 15.6084Z" fill="#000D33" style="fill:#000D33;fill:color(display-p3 0.0000 0.0498 0.2000);fill-opacity:1;"/>
</svg>