<svg xmlns="http://www.w3.org/2000/svg" width="34" height="34" viewBox="0 0 34 34" fill="none">
  <path d="M27.342 11.2201V18.516C27.342 22.8793 24.8487 24.7492 21.1087 24.7492H8.65618C8.01868 24.7492 7.40951 24.6927 6.84284 24.5652C6.48868 24.5085 6.14869 24.4093 5.83702 24.296C3.71202 23.5027 2.42285 21.661 2.42285 18.516V11.2201C2.42285 6.85676 4.91618 4.98682 8.65618 4.98682H21.1087C24.282 4.98682 26.5629 6.33264 27.172 9.40681C27.2712 9.97348 27.342 10.5543 27.342 11.2201Z" stroke="#666666" style="stroke:#666666;stroke:color(display-p3 0.4000 0.4000 0.4000);stroke-opacity:1;" stroke-width="3" stroke-miterlimit="10" stroke-linecap="round" stroke-linejoin="round"/>
  <path d="M31.5939 15.4703V22.7661C31.5939 27.1295 29.1006 28.9994 25.3606 28.9994H12.9081C11.8597 28.9994 10.9106 28.8578 10.0889 28.5462C8.40307 27.9228 7.25556 26.6337 6.84473 24.5653C7.41139 24.6928 8.02056 24.7494 8.65806 24.7494H21.1106C24.8506 24.7494 27.3439 22.8795 27.3439 18.5161V11.2203C27.3439 10.5544 27.2872 9.95948 27.1739 9.40698C29.8656 9.97365 31.5939 11.8719 31.5939 15.4703Z" stroke="#666666" style="stroke:#666666;stroke:color(display-p3 0.4000 0.4000 0.4000);stroke-opacity:1;" stroke-width="3" stroke-miterlimit="10" stroke-linecap="round" stroke-linejoin="round"/>
  <path d="M14.8728 18.6151C16.9384 18.6151 18.6129 16.9406 18.6129 14.875C18.6129 12.8095 16.9384 11.135 14.8728 11.135C12.8073 11.135 11.1328 12.8095 11.1328 14.875C11.1328 16.9406 12.8073 18.6151 14.8728 18.6151Z" stroke="#666666" style="stroke:#666666;stroke:color(display-p3 0.4000 0.4000 0.4000);stroke-opacity:1;" stroke-width="3" stroke-miterlimit="10" stroke-linecap="round" stroke-linejoin="round"/>
  <path d="M6.77246 11.7585V17.9919" stroke="#666666" style="stroke:#666666;stroke:color(display-p3 0.4000 0.4000 0.4000);stroke-opacity:1;" stroke-width="3" stroke-miterlimit="10" stroke-linecap="round" stroke-linejoin="round"/>
  <path d="M22.9814 11.7588V17.9922" stroke="#666666" style="stroke:#666666;stroke:color(display-p3 0.4000 0.4000 0.4000);stroke-opacity:1;" stroke-width="3" stroke-miterlimit="10" stroke-linecap="round" stroke-linejoin="round"/>
</svg>