<svg xmlns="http://www.w3.org/2000/svg" width="21" height="20" viewBox="0 0 21 20" fill="none">
  <path d="M14.4774 3.33337H6.14408C3.64408 3.33337 1.97742 4.58337 1.97742 7.50004V10.4667C1.97742 10.775 2.29408 10.9667 2.56908 10.8417C3.38575 10.4667 4.32742 10.325 5.31908 10.5C7.51075 10.8917 9.11908 12.925 9.06075 15.15C9.05242 15.5 9.00242 15.8417 8.91075 16.175C8.84408 16.4334 9.05242 16.675 9.31908 16.675H14.4774C16.9774 16.675 18.6441 15.425 18.6441 12.5084V7.50004C18.6441 4.58337 16.9774 3.33337 14.4774 3.33337ZM10.3108 12.0834C9.16075 12.0834 8.22742 11.15 8.22742 10C8.22742 8.85004 9.16075 7.91671 10.3108 7.91671C11.4607 7.91671 12.3941 8.85004 12.3941 10C12.3941 11.15 11.4607 12.0834 10.3108 12.0834ZM16.3524 11.6667C16.3524 12.0084 16.0691 12.2917 15.7274 12.2917C15.3857 12.2917 15.1024 12.0084 15.1024 11.6667V8.33337C15.1024 7.99171 15.3857 7.70837 15.7274 7.70837C16.0691 7.70837 16.3524 7.99171 16.3524 8.33337V11.6667Z" fill="white" style="fill:white;fill-opacity:1;"/>
  <path d="M4.4775 11.6666C2.63583 11.6666 1.14417 13.1583 1.14417 15C1.14417 15.625 1.31917 16.2166 1.6275 16.7166C2.2025 17.6833 3.26083 18.3333 4.4775 18.3333C5.69416 18.3333 6.7525 17.6833 7.3275 16.7166C7.63583 16.2166 7.81083 15.625 7.81083 15C7.81083 13.1583 6.31916 11.6666 4.4775 11.6666ZM6.11916 14.725L4.34417 16.3666C4.2275 16.475 4.06916 16.5333 3.91916 16.5333C3.76083 16.5333 3.6025 16.475 3.4775 16.35L2.6525 15.525C2.41083 15.2833 2.41083 14.8833 2.6525 14.6416C2.89416 14.4 3.29416 14.4 3.53583 14.6416L3.93583 15.0416L5.26916 13.8083C5.51916 13.575 5.91917 13.5916 6.1525 13.8416C6.38583 14.0916 6.36916 14.4916 6.11916 14.725Z" fill="white" style="fill:white;fill-opacity:1;"/>
</svg>