<svg xmlns="http://www.w3.org/2000/svg" width="16" height="15" viewBox="0 0 16 15" fill="none">
  <path d="M8 1.25C4.55625 1.25 1.75 4.05625 1.75 7.5C1.75 10.9438 4.55625 13.75 8 13.75C11.4438 13.75 14.25 10.9438 14.25 7.5C14.25 4.05625 11.4438 1.25 8 1.25ZM5.5 8.125C5.15 8.125 4.875 7.84375 4.875 7.5C4.875 7.15625 5.15625 6.875 5.5 6.875C5.84375 6.875 6.125 7.15625 6.125 7.5C6.125 7.84375 5.85 8.125 5.5 8.125ZM8 8.125C7.65 8.125 7.375 7.84375 7.375 7.5C7.375 7.15625 7.65625 6.875 8 6.875C8.34375 6.875 8.625 7.15625 8.625 7.5C8.625 7.84375 8.35 8.125 8 8.125ZM10.5 8.125C10.15 8.125 9.875 7.84375 9.875 7.5C9.875 7.15625 10.1562 6.875 10.5 6.875C10.8438 6.875 11.125 7.15625 11.125 7.5C11.125 7.84375 10.85 8.125 10.5 8.125Z" fill="#FF9800" style="fill:#FF9800;fill:color(display-p3 1.0000 0.5961 0.0000);fill-opacity:1;"/>
</svg>