<svg xmlns="http://www.w3.org/2000/svg" width="20" height="20" viewBox="0 0 20 20" fill="none">
  <path d="M5.8335 4.16699C5.8335 2.78366 6.95016 1.66699 8.3335 1.66699H11.6668C13.0502 1.66699 14.1668 2.78366 14.1668 4.16699C14.1668 4.62533 13.7918 5.00033 13.3335 5.00033H6.66683C6.2085 5.00033 5.8335 4.62533 5.8335 4.16699Z" fill="white" style="fill:white;fill-opacity:1;"/>
  <path d="M14.7918 12.5C14.7918 12.8417 14.5085 13.125 14.1668 13.125H13.3335V15.8333C13.3335 17.2167 12.2168 18.3333 10.8335 18.3333H9.16683C7.7835 18.3333 6.66683 17.2167 6.66683 15.8333V13.125H5.8335C5.49183 13.125 5.2085 12.8417 5.2085 12.5C5.2085 12.1583 5.49183 11.875 5.8335 11.875H14.1668C14.5085 11.875 14.7918 12.1583 14.7918 12.5Z" fill="white" style="fill:white;fill-opacity:1;"/>
  <path d="M15 5.83301H5C3.33333 5.83301 2.5 6.66634 2.5 8.33301V12.4997C2.5 14.1663 3.33333 14.9997 5 14.9997H5.3125C5.60015 14.9997 5.83333 14.7665 5.83333 14.4788C5.83333 14.1912 5.59275 13.9667 5.32368 13.865C4.77182 13.6565 4.375 13.1208 4.375 12.4997C4.375 11.6997 5.03333 11.0413 5.83333 11.0413H14.1667C14.9667 11.0413 15.625 11.6997 15.625 12.4997C15.625 13.1208 15.2282 13.6565 14.6763 13.865C14.4072 13.9667 14.1667 14.1912 14.1667 14.4788C14.1667 14.7665 14.3999 14.9997 14.6875 14.9997H15C16.6667 14.9997 17.5 14.1663 17.5 12.4997V8.33301C17.5 6.66634 16.6667 5.83301 15 5.83301ZM8.33333 9.79134H5.83333C5.49167 9.79134 5.20833 9.50801 5.20833 9.16634C5.20833 8.82467 5.49167 8.54134 5.83333 8.54134H8.33333C8.675 8.54134 8.95833 8.82467 8.95833 9.16634C8.95833 9.50801 8.675 9.79134 8.33333 9.79134Z" fill="white" style="fill:white;fill-opacity:1;"/>
</svg>