<svg xmlns="http://www.w3.org/2000/svg" width="34" height="34" viewBox="0 0 34 34" fill="none">
  <path d="M4.49121 10.54L17.0004 17.7792L29.4245 10.5825" stroke="#666666" style="stroke:#666666;stroke:color(display-p3 0.4000 0.4000 0.4000);stroke-opacity:1;" stroke-width="3" stroke-linecap="round" stroke-linejoin="round"/>
  <path d="M17 30.6141V17.7649" stroke="#666666" style="stroke:#666666;stroke:color(display-p3 0.4000 0.4000 0.4000);stroke-opacity:1;" stroke-width="3" stroke-linecap="round" stroke-linejoin="round"/>
  <path d="M14.0674 3.51325L6.50238 7.7208C4.78822 8.66996 3.38574 11.0499 3.38574 13.0049V21.0091C3.38574 22.9641 4.78822 25.3441 6.50238 26.2933L14.0674 30.5008C15.6824 31.3933 18.3315 31.3933 19.9465 30.5008L27.5116 26.2933C29.2257 25.3441 30.6282 22.9641 30.6282 21.0091V13.0049C30.6282 11.0499 29.2257 8.66996 27.5116 7.7208L19.9465 3.51325C18.3174 2.60659 15.6824 2.60659 14.0674 3.51325Z" stroke="#666666" style="stroke:#666666;stroke:color(display-p3 0.4000 0.4000 0.4000);stroke-opacity:1;" stroke-width="3" stroke-linecap="round" stroke-linejoin="round"/>
  <path d="M24.0838 18.7567V13.5717L10.6396 5.80835" stroke="#666666" style="stroke:#666666;stroke:color(display-p3 0.4000 0.4000 0.4000);stroke-opacity:1;" stroke-width="3" stroke-linecap="round" stroke-linejoin="round"/>
</svg>