<svg xmlns="http://www.w3.org/2000/svg" width="34" height="34" viewBox="0 0 34 34" fill="none">
  <path d="M11.333 17.2834H21.2497" stroke="#666666" style="stroke:#666666;stroke:color(display-p3 0.4000 0.4000 0.4000);stroke-opacity:1;" stroke-width="3" stroke-miterlimit="10" stroke-linecap="round" stroke-linejoin="round"/>
  <path d="M11.333 22.95H17.538" stroke="#666666" style="stroke:#666666;stroke:color(display-p3 0.4000 0.4000 0.4000);stroke-opacity:1;" stroke-width="3" stroke-miterlimit="10" stroke-linecap="round" stroke-linejoin="round"/>
  <path d="M14.1663 8.49992H19.833C22.6663 8.49992 22.6663 7.08325 22.6663 5.66659C22.6663 2.83325 21.2497 2.83325 19.833 2.83325H14.1663C12.7497 2.83325 11.333 2.83325 11.333 5.66659C11.333 8.49992 12.7497 8.49992 14.1663 8.49992Z" stroke="#666666" style="stroke:#666666;stroke:color(display-p3 0.4000 0.4000 0.4000);stroke-opacity:1;" stroke-width="3" stroke-miterlimit="10" stroke-linecap="round" stroke-linejoin="round"/>
  <path d="M22.6667 5.69507C27.3842 5.95007 29.75 7.69257 29.75 14.1667V22.6667C29.75 28.3334 28.3333 31.1667 21.25 31.1667H12.75C5.66667 31.1667 4.25 28.3334 4.25 22.6667V14.1667C4.25 7.70674 6.61583 5.95007 11.3333 5.69507" stroke="#666666" style="stroke:#666666;stroke:color(display-p3 0.4000 0.4000 0.4000);stroke-opacity:1;" stroke-width="3" stroke-miterlimit="10" stroke-linecap="round" stroke-linejoin="round"/>
</svg>