<svg width="13" height="13" viewBox="0 0 13 13" fill="none" xmlns="http://www.w3.org/2000/svg">
<path d="M9.11875 0.25H3.88125C1.60625 0.25 0.25 1.60625 0.25 3.88125V9.1125C0.25 11.3938 1.60625 12.75 3.88125 12.75H9.1125C11.3875 12.75 12.7437 11.3938 12.7437 9.11875V3.88125C12.75 1.60625 11.3938 0.25 9.11875 0.25ZM7.7 9.08125H4.625C4.36875 9.08125 4.15625 8.86875 4.15625 8.6125C4.15625 8.35625 4.36875 8.14375 4.625 8.14375H7.7C8.5 8.14375 9.15625 7.49375 9.15625 6.6875C9.15625 5.88125 8.50625 5.23125 7.7 5.23125H4.53125L4.69375 5.39375C4.875 5.58125 4.875 5.875 4.6875 6.0625C4.59375 6.15625 4.475 6.2 4.35625 6.2C4.2375 6.2 4.11875 6.15625 4.025 6.0625L3.04375 5.075C2.8625 4.89375 2.8625 4.59375 3.04375 4.4125L4.025 3.43125C4.20625 3.25 4.50625 3.25 4.6875 3.43125C4.86875 3.6125 4.86875 3.9125 4.6875 4.09375L4.48125 4.3H7.7C9.01875 4.3 10.0938 5.375 10.0938 6.69375C10.0938 8.0125 9.01875 9.08125 7.7 9.08125Z" fill="#4CAF50" style="fill:#4CAF50;fill:color(display-p3 0.2980 0.6863 0.3137);fill-opacity:1;"/>
</svg>
