<svg xmlns="http://www.w3.org/2000/svg" width="34" height="34" viewBox="0 0 34 34" fill="none">
  <path d="M4.26465 15.895V22.2559C4.26465 28.6167 6.81465 31.1667 13.1755 31.1667H20.8113C27.1721 31.1667 29.7221 28.6167 29.7221 22.2559V15.895" stroke="#4CAF50" style="stroke:#4CAF50;stroke:color(display-p3 0.2980 0.6863 0.3137);stroke-opacity:1;" stroke-width="3" stroke-linecap="round" stroke-linejoin="round"/>
  <path d="M17.0004 16.9999C19.5929 16.9999 21.5054 14.8891 21.2504 12.2966L20.3154 2.83325H13.6995L12.7504 12.2966C12.4954 14.8891 14.4079 16.9999 17.0004 16.9999Z" stroke="#4CAF50" style="stroke:#4CAF50;stroke:color(display-p3 0.2980 0.6863 0.3137);stroke-opacity:1;" stroke-width="3" stroke-linecap="round" stroke-linejoin="round"/>
  <path d="M25.9396 16.9999C28.8013 16.9999 30.898 14.6766 30.6146 11.8291L30.218 7.93325C29.708 4.24992 28.2913 2.83325 24.5796 2.83325H20.2588L21.2505 12.7641C21.4913 15.1016 23.6021 16.9999 25.9396 16.9999Z" stroke="#4CAF50" style="stroke:#4CAF50;stroke:color(display-p3 0.2980 0.6863 0.3137);stroke-opacity:1;" stroke-width="3" stroke-linecap="round" stroke-linejoin="round"/>
  <path d="M7.98971 16.9999C10.3272 16.9999 12.438 15.1016 12.6647 12.7641L12.9764 9.63325L13.6564 2.83325H9.33555C5.62388 2.83325 4.20721 4.24992 3.69721 7.93325L3.31471 11.8291C3.03138 14.6766 5.12804 16.9999 7.98971 16.9999Z" stroke="#4CAF50" style="stroke:#4CAF50;stroke:color(display-p3 0.2980 0.6863 0.3137);stroke-opacity:1;" stroke-width="3" stroke-linecap="round" stroke-linejoin="round"/>
  <path d="M16.9997 24.0833C14.6338 24.0833 13.458 25.2591 13.458 27.6249V31.1666H20.5413V27.6249C20.5413 25.2591 19.3655 24.0833 16.9997 24.0833Z" stroke="#4CAF50" style="stroke:#4CAF50;stroke:color(display-p3 0.2980 0.6863 0.3137);stroke-opacity:1;" stroke-width="3" stroke-linecap="round" stroke-linejoin="round"/>
</svg>