<svg xmlns="http://www.w3.org/2000/svg" width="25" height="25" viewBox="0 0 25 25" fill="none">
  <path d="M16.4976 2.2229H8.11762C4.47762 2.2229 2.30762 4.3929 2.30762 8.0329V16.4029C2.30762 20.0529 4.47762 22.2229 8.11762 22.2229H16.4876C20.1276 22.2229 22.2976 20.0529 22.2976 16.4129V8.0329C22.3076 4.3929 20.1376 2.2229 16.4976 2.2229ZM14.0976 15.2229C14.3876 15.5129 14.3876 15.9929 14.0976 16.2829C13.9476 16.4329 13.7576 16.5029 13.5676 16.5029C13.3776 16.5029 13.1876 16.4329 13.0376 16.2829L9.50762 12.7529C9.21762 12.4629 9.21762 11.9829 9.50762 11.6929L13.0376 8.1629C13.3276 7.8729 13.8076 7.8729 14.0976 8.1629C14.3876 8.4529 14.3876 8.9329 14.0976 9.2229L11.0976 12.2229L14.0976 15.2229Z" fill="#0241FF" style="fill:#0241FF;fill:color(display-p3 0.0078 0.2549 1.0000);fill-opacity:1;"/>
</svg>