<svg xmlns="http://www.w3.org/2000/svg" width="16" height="15" viewBox="0 0 16 15" fill="none">
  <path d="M8 1.25C4.55625 1.25 1.75 4.05625 1.75 7.5C1.75 10.9438 4.55625 13.75 8 13.75C11.4438 13.75 14.25 10.9438 14.25 7.5C14.25 4.05625 11.4438 1.25 8 1.25ZM10.9875 6.0625L7.44375 9.60625C7.35625 9.69375 7.2375 9.74375 7.1125 9.74375C6.9875 9.74375 6.86875 9.69375 6.78125 9.60625L5.0125 7.8375C4.83125 7.65625 4.83125 7.35625 5.0125 7.175C5.19375 6.99375 5.49375 6.99375 5.675 7.175L7.1125 8.6125L10.325 5.4C10.5063 5.21875 10.8063 5.21875 10.9875 5.4C11.1688 5.58125 11.1688 5.875 10.9875 6.0625Z" fill="#4CAF50" style="fill:#4CAF50;fill:color(display-p3 0.2980 0.6863 0.3137);fill-opacity:1;"/>
</svg>