<svg xmlns="http://www.w3.org/2000/svg" width="34" height="34" viewBox="0 0 34 34" fill="none">
  <path d="M21.2497 2.83325V16.9999C21.2497 18.5583 19.9747 19.8333 18.4163 19.8333H2.83301V8.49992C2.83301 5.36909 5.36884 2.83325 8.49967 2.83325H21.2497Z" stroke="#666666" style="stroke:#666666;stroke:color(display-p3 0.4000 0.4000 0.4000);stroke-opacity:1;" stroke-width="3" stroke-linecap="round" stroke-linejoin="round"/>
  <path d="M31.1663 19.8333V24.0833C31.1663 26.4349 29.268 28.3333 26.9163 28.3333H25.4997C25.4997 26.7749 24.2247 25.4999 22.6663 25.4999C21.108 25.4999 19.833 26.7749 19.833 28.3333H14.1663C14.1663 26.7749 12.8913 25.4999 11.333 25.4999C9.77467 25.4999 8.49967 26.7749 8.49967 28.3333H7.08301C4.73134 28.3333 2.83301 26.4349 2.83301 24.0833V19.8333H18.4163C19.9747 19.8333 21.2497 18.5583 21.2497 16.9999V7.08325H23.8563C24.8763 7.08325 25.8113 7.63577 26.3213 8.5141L28.7439 12.7499H26.9163C26.1372 12.7499 25.4997 13.3874 25.4997 14.1666V18.4166C25.4997 19.1958 26.1372 19.8333 26.9163 19.8333H31.1663Z" stroke="#666666" style="stroke:#666666;stroke:color(display-p3 0.4000 0.4000 0.4000);stroke-opacity:1;" stroke-width="3" stroke-linecap="round" stroke-linejoin="round"/>
  <path d="M11.3333 31.1667C12.8981 31.1667 14.1667 29.8981 14.1667 28.3333C14.1667 26.7685 12.8981 25.5 11.3333 25.5C9.76853 25.5 8.5 26.7685 8.5 28.3333C8.5 29.8981 9.76853 31.1667 11.3333 31.1667Z" stroke="#666666" style="stroke:#666666;stroke:color(display-p3 0.4000 0.4000 0.4000);stroke-opacity:1;" stroke-width="3" stroke-linecap="round" stroke-linejoin="round"/>
  <path d="M22.6663 31.1667C24.2311 31.1667 25.4997 29.8981 25.4997 28.3333C25.4997 26.7685 24.2311 25.5 22.6663 25.5C21.1015 25.5 19.833 26.7685 19.833 28.3333C19.833 29.8981 21.1015 31.1667 22.6663 31.1667Z" stroke="#666666" style="stroke:#666666;stroke:color(display-p3 0.4000 0.4000 0.4000);stroke-opacity:1;" stroke-width="3" stroke-linecap="round" stroke-linejoin="round"/>
  <path d="M31.1667 17V19.8333H26.9167C26.1375 19.8333 25.5 19.1958 25.5 18.4167V14.1667C25.5 13.3875 26.1375 12.75 26.9167 12.75H28.7442L31.1667 17Z" stroke="#666666" style="stroke:#666666;stroke:color(display-p3 0.4000 0.4000 0.4000);stroke-opacity:1;" stroke-width="3" stroke-linecap="round" stroke-linejoin="round"/>
</svg>