<svg xmlns="http://www.w3.org/2000/svg" width="20" height="21" viewBox="0 0 20 21" fill="none">
  <path d="M12.4998 19.4583C12.2748 19.4583 12.0665 19.3333 11.9582 19.1417C11.8498 18.95 11.8498 18.7083 11.9665 18.5167L12.8415 17.0583C13.0165 16.7583 13.3998 16.6667 13.6998 16.8417C13.9998 17.0167 14.0915 17.4 13.9165 17.7L13.6915 18.075C15.9915 17.5333 17.7165 15.4667 17.7165 13C17.7165 12.6583 17.9998 12.375 18.3415 12.375C18.6832 12.375 18.9665 12.6583 18.9665 13C18.9582 16.5583 16.0582 19.4583 12.4998 19.4583Z" fill="#505BDA" style="fill:#505BDA;fill:color(display-p3 0.3137 0.3569 0.8549);fill-opacity:1;"/>
  <path d="M1.66699 8.62508C1.32533 8.62508 1.04199 8.34175 1.04199 8.00008C1.04199 4.44175 3.94199 1.54175 7.50033 1.54175C7.72533 1.54175 7.93366 1.66675 8.04199 1.85841C8.15032 2.05008 8.15033 2.29175 8.03366 2.48341L7.15866 3.95008C6.98366 4.24175 6.60033 4.34175 6.30033 4.15841C6.00866 3.98341 5.90866 3.60008 6.09199 3.30008L6.31699 2.92508C4.00866 3.46675 2.29199 5.53341 2.29199 8.00008C2.29199 8.34175 2.00866 8.62508 1.66699 8.62508Z" fill="#505BDA" style="fill:#505BDA;fill:color(display-p3 0.3137 0.3569 0.8549);fill-opacity:1;"/>
  <path d="M8.8918 12.0416L6.27513 10.6333C6.00013 10.4833 5.6668 10.4833 5.3918 10.6333L2.77513 12.0416C2.58346 12.1416 2.4668 12.3499 2.4668 12.5749C2.4668 12.7999 2.58346 13.0083 2.77513 13.1083L5.3918 14.5166C5.53346 14.5916 5.68346 14.6249 5.83346 14.6249C5.98346 14.6249 6.13346 14.5916 6.27513 14.5166L8.8918 13.1083C9.08346 13.0083 9.20013 12.7999 9.20013 12.5749C9.20013 12.3499 9.07513 12.1499 8.8918 12.0416Z" fill="#505BDA" style="fill:#505BDA;fill:color(display-p3 0.3137 0.3569 0.8549);fill-opacity:1;"/>
  <path d="M4.95866 15.0084L2.52533 13.7918C2.34199 13.7001 2.12533 13.7084 1.94199 13.8168C1.77533 13.9251 1.66699 14.1168 1.66699 14.3251V16.6251C1.66699 17.0251 1.88366 17.3834 2.24199 17.5584L4.67533 18.7751C4.75866 18.8084 4.85033 18.8334 4.94199 18.8334C5.05033 18.8334 5.15866 18.8001 5.25866 18.7418C5.43366 18.6334 5.54199 18.4418 5.54199 18.2334V15.9334C5.54199 15.5418 5.31699 15.1834 4.95866 15.0084Z" fill="#505BDA" style="fill:#505BDA;fill:color(display-p3 0.3137 0.3569 0.8549);fill-opacity:1;"/>
  <path d="M9.71667 13.8168C9.54167 13.7084 9.325 13.7001 9.13333 13.7918L6.7 15.0084C6.34167 15.1834 6.125 15.5418 6.125 15.9418V18.2418C6.125 18.4501 6.23333 18.6418 6.40833 18.7501C6.50833 18.8001 6.61667 18.8334 6.725 18.8334C6.81667 18.8334 6.90833 18.8084 6.99167 18.7668L9.425 17.5501C9.78333 17.3751 10 17.0168 10 16.6168V14.3168C10 14.1168 9.89167 13.9251 9.71667 13.8168Z" fill="#505BDA" style="fill:#505BDA;fill:color(display-p3 0.3137 0.3569 0.8549);fill-opacity:1;"/>
  <path d="M17.2248 3.69173L14.6081 2.2834C14.3331 2.1334 13.9998 2.1334 13.7248 2.2834L11.1081 3.69173C10.9165 3.79173 10.7998 4.00006 10.7998 4.22506C10.7998 4.45006 10.9165 4.6584 11.1081 4.7584L13.7248 6.16673C13.8665 6.24173 14.0165 6.27506 14.1665 6.27506C14.3165 6.27506 14.4665 6.24173 14.6081 6.16673L17.2248 4.7584C17.4165 4.6584 17.5331 4.45006 17.5331 4.22506C17.5331 3.99173 17.4081 3.79173 17.2248 3.69173Z" fill="#505BDA" style="fill:#505BDA;fill:color(display-p3 0.3137 0.3569 0.8549);fill-opacity:1;"/>
  <path d="M13.2917 6.65005L10.8583 5.43338C10.675 5.34172 10.4583 5.35005 10.275 5.45838C10.1083 5.56672 10 5.75838 10 5.96672V8.26672C10 8.66672 10.2167 9.02505 10.575 9.20005L13.0083 10.4167C13.0917 10.4584 13.1833 10.4834 13.275 10.4834C13.3833 10.4834 13.4917 10.45 13.5917 10.3917C13.7667 10.2834 13.875 10.0917 13.875 9.88338V7.58338C13.875 7.18338 13.65 6.82505 13.2917 6.65005Z" fill="#505BDA" style="fill:#505BDA;fill:color(display-p3 0.3137 0.3569 0.8549);fill-opacity:1;"/>
  <path d="M18.0497 5.45838C17.8747 5.35005 17.658 5.34172 17.4663 5.43338L15.033 6.65005C14.6747 6.82505 14.458 7.18338 14.458 7.58338V9.88338C14.458 10.0917 14.5663 10.2834 14.7413 10.3917C14.8413 10.45 14.9497 10.4834 15.058 10.4834C15.1497 10.4834 15.2413 10.4584 15.3247 10.4167L17.758 9.20005C18.1163 9.01672 18.333 8.65838 18.333 8.26672V5.96672C18.333 5.75838 18.2247 5.56672 18.0497 5.45838Z" fill="#505BDA" style="fill:#505BDA;fill:color(display-p3 0.3137 0.3569 0.8549);fill-opacity:1;"/>
</svg>