<svg xmlns="http://www.w3.org/2000/svg" width="16" height="16" viewBox="0 0 16 16" fill="none">
  <path d="M14.042 1.95625C13.592 1.44375 12.9233 1.125 12.1858 1.125C11.4858 1.125 10.8483 1.4125 10.392 1.88125C10.1295 2.15 9.92954 2.475 9.81079 2.8375C9.72954 3.0875 9.68579 3.35 9.68579 3.625C9.68579 4.09375 9.81704 4.5375 10.0483 4.9125C10.1733 5.125 10.3358 5.31875 10.5233 5.48125C10.9608 5.88125 11.542 6.125 12.1858 6.125C12.4608 6.125 12.7233 6.08125 12.967 5.99375C13.542 5.8125 14.0233 5.41875 14.3233 4.9125C14.4545 4.7 14.5545 4.45625 14.6108 4.20625C14.6608 4.01875 14.6858 3.825 14.6858 3.625C14.6858 2.9875 14.442 2.4 14.042 1.95625ZM13.117 4.08125H12.6545V4.56875C12.6545 4.825 12.442 5.0375 12.1858 5.0375C11.9295 5.0375 11.717 4.825 11.717 4.56875V4.08125H11.2545C10.9983 4.08125 10.7858 3.86875 10.7858 3.6125C10.7858 3.35625 10.9983 3.14375 11.2545 3.14375H11.717V2.7C11.717 2.44375 11.9295 2.23125 12.1858 2.23125C12.442 2.23125 12.6545 2.44375 12.6545 2.7V3.14375H13.117C13.3733 3.14375 13.5858 3.35625 13.5858 3.6125C13.5858 3.86875 13.3795 4.08125 13.117 4.08125Z" fill="#EDEEF0" style="fill:#EDEEF0;fill:color(display-p3 0.9294 0.9333 0.9412);fill-opacity:1;"/>
  <path d="M14.0608 8C14.0608 7.18125 13.9045 6.39375 13.6108 5.675C13.417 5.8125 13.1983 5.91875 12.967 5.99375C12.8983 6.01875 12.8295 6.0375 12.7545 6.05625C12.992 6.65625 13.1233 7.3125 13.1233 8C13.1233 9.45 12.5358 10.7687 11.5858 11.7312C11.4045 11.5 11.1733 11.2875 10.8983 11.1062C9.20454 9.96875 6.42954 9.96875 4.72329 11.1062C4.44829 11.2875 4.22329 11.5 4.03579 11.7312C3.08579 10.7687 2.49829 9.45 2.49829 8C2.49829 5.06875 4.87954 2.6875 7.81079 2.6875C8.49204 2.6875 9.14829 2.81875 9.74829 3.05625C9.76704 2.98125 9.78579 2.9125 9.81079 2.8375C9.88579 2.60625 9.99204 2.39375 10.1358 2.2C9.41704 1.90625 8.62954 1.75 7.81079 1.75C4.36704 1.75 1.56079 4.55625 1.56079 8C1.56079 9.8125 2.34204 11.4438 3.57954 12.5875C3.57954 12.5938 3.57954 12.5938 3.57329 12.6C3.63579 12.6625 3.71079 12.7125 3.77329 12.7687C3.81079 12.8 3.84204 12.8313 3.87954 12.8563C3.99204 12.95 4.11704 13.0375 4.23579 13.125C4.27954 13.1563 4.31704 13.1812 4.36079 13.2125C4.47954 13.2937 4.60454 13.3688 4.73579 13.4375C4.77954 13.4625 4.82954 13.4937 4.87329 13.5188C4.99829 13.5875 5.12954 13.65 5.26704 13.7062C5.31704 13.7312 5.36704 13.7562 5.41704 13.775C5.55454 13.8313 5.69204 13.8812 5.82954 13.925C5.87954 13.9437 5.92954 13.9625 5.97954 13.975C6.12954 14.0187 6.27954 14.0562 6.42954 14.0938C6.47329 14.1062 6.51704 14.1187 6.56704 14.125C6.74204 14.1625 6.91704 14.1875 7.09829 14.2063C7.12329 14.2063 7.14829 14.2125 7.17329 14.2188C7.38579 14.2375 7.59829 14.25 7.81079 14.25C8.02329 14.25 8.23579 14.2375 8.44204 14.2188C8.46704 14.2188 8.49204 14.2125 8.51704 14.2063C8.69829 14.1875 8.87329 14.1625 9.04829 14.125C9.09204 14.1187 9.13579 14.1 9.18579 14.0938C9.33579 14.0562 9.49204 14.025 9.63579 13.975C9.68579 13.9562 9.73579 13.9375 9.78579 13.925C9.92329 13.875 10.067 13.8313 10.1983 13.775C10.2483 13.7562 10.2983 13.7312 10.3483 13.7062C10.4795 13.65 10.6108 13.5875 10.742 13.5188C10.792 13.4937 10.8358 13.4625 10.8795 13.4375C11.0045 13.3625 11.1295 13.2937 11.2545 13.2125C11.2983 13.1875 11.3358 13.1563 11.3795 13.125C11.5045 13.0375 11.6233 12.95 11.7358 12.8563C11.7733 12.825 11.8045 12.7937 11.842 12.7687C11.9108 12.7125 11.9795 12.6562 12.042 12.6C12.042 12.5938 12.042 12.5938 12.0358 12.5875C13.2795 11.4438 14.0608 9.8125 14.0608 8Z" fill="#EDEEF0" style="fill:#EDEEF0;fill:color(display-p3 0.9294 0.9333 0.9412);fill-opacity:1;"/>
  <path d="M7.81079 4.83124C6.51704 4.83124 5.46704 5.88124 5.46704 7.17499C5.46704 8.44374 6.46079 9.47499 7.77954 9.51249C7.79829 9.51249 7.82329 9.51249 7.83579 9.51249C7.84829 9.51249 7.86704 9.51249 7.87954 9.51249C7.88579 9.51249 7.89204 9.51249 7.89204 9.51249C9.15454 9.46874 10.1483 8.44374 10.1545 7.17499C10.1545 5.88124 9.10454 4.83124 7.81079 4.83124Z" fill="#EDEEF0" style="fill:#EDEEF0;fill:color(display-p3 0.9294 0.9333 0.9412);fill-opacity:1;"/>
</svg>