<svg xmlns="http://www.w3.org/2000/svg" width="20" height="21" viewBox="0 0 20 21" fill="none">
  <path d="M14.1641 4.24841H5.83073C3.33073 4.24841 1.66406 5.49841 1.66406 8.41508V11.3817C1.66406 11.6901 1.98073 11.8817 2.25573 11.7567C3.0724 11.3817 4.01406 11.2401 5.00573 11.4151C7.1974 11.8067 8.80573 13.8401 8.7474 16.0651C8.73906 16.4151 8.68906 16.7567 8.5974 17.0901C8.53073 17.3484 8.73906 17.5901 9.00573 17.5901H14.1641C16.6641 17.5901 18.3307 16.3401 18.3307 13.4234V8.41508C18.3307 5.49841 16.6641 4.24841 14.1641 4.24841ZM9.9974 12.9984C8.8474 12.9984 7.91406 12.0651 7.91406 10.9151C7.91406 9.76508 8.8474 8.83175 9.9974 8.83175C11.1474 8.83175 12.0807 9.76508 12.0807 10.9151C12.0807 12.0651 11.1474 12.9984 9.9974 12.9984ZM16.0391 12.5817C16.0391 12.9234 15.7557 13.2067 15.4141 13.2067C15.0724 13.2067 14.7891 12.9234 14.7891 12.5817V9.24841C14.7891 8.90675 15.0724 8.62341 15.4141 8.62341C15.7557 8.62341 16.0391 8.90675 16.0391 9.24841V12.5817Z" fill="#F44336" style="fill:#F44336;fill:color(display-p3 0.9569 0.2627 0.2118);fill-opacity:1;"/>
  <path d="M4.16927 12.5817C3.16927 12.5817 2.2776 13.0233 1.66927 13.715C1.1526 14.3067 0.835938 15.0733 0.835938 15.915C0.835938 16.54 1.01094 17.1317 1.31927 17.6317C1.89427 18.5983 2.9526 19.2483 4.16927 19.2483C5.01094 19.2483 5.7776 18.94 6.36094 18.415C6.61927 18.1983 6.84427 17.9317 7.01927 17.6317C7.3276 17.1317 7.5026 16.54 7.5026 15.915C7.5026 14.0733 6.01094 12.5817 4.16927 12.5817ZM5.5026 17.2317C5.3776 17.3567 5.21927 17.415 5.06094 17.415C4.9026 17.415 4.74427 17.3567 4.61927 17.2317L4.1776 16.79L3.71927 17.2483C3.59427 17.3733 3.43594 17.4317 3.2776 17.4317C3.11927 17.4317 2.96094 17.3733 2.83594 17.2483C2.59427 17.0067 2.59427 16.6067 2.83594 16.365L3.29427 15.9067L2.8526 15.465C2.61094 15.2233 2.61094 14.8233 2.8526 14.5817C3.09427 14.34 3.49427 14.34 3.73594 14.5817L4.1776 15.0233L4.59427 14.6067C4.83594 14.365 5.23594 14.365 5.4776 14.6067C5.71927 14.8483 5.71927 15.2483 5.4776 15.49L5.06094 15.9067L5.5026 16.3483C5.74427 16.59 5.74427 16.9817 5.5026 17.2317Z" fill="#F44336" style="fill:#F44336;fill:color(display-p3 0.9569 0.2627 0.2118);fill-opacity:1;"/>
</svg>