<svg xmlns="http://www.w3.org/2000/svg" width="20" height="21" viewBox="0 0 20 21" fill="none">
  <path d="M14.1641 4.24841H5.83073C3.33073 4.24841 1.66406 5.49841 1.66406 8.41508V11.3817C1.66406 11.6901 1.98073 11.8817 2.25573 11.7567C3.0724 11.3817 4.01406 11.2401 5.00573 11.4151C7.1974 11.8067 8.80573 13.8401 8.7474 16.0651C8.73906 16.4151 8.68906 16.7567 8.5974 17.0901C8.53073 17.3484 8.73906 17.5901 9.00573 17.5901H14.1641C16.6641 17.5901 18.3307 16.3401 18.3307 13.4234V8.41508C18.3307 5.49841 16.6641 4.24841 14.1641 4.24841ZM9.9974 12.9984C8.8474 12.9984 7.91406 12.0651 7.91406 10.9151C7.91406 9.76508 8.8474 8.83175 9.9974 8.83175C11.1474 8.83175 12.0807 9.76508 12.0807 10.9151C12.0807 12.0651 11.1474 12.9984 9.9974 12.9984ZM16.0391 12.5817C16.0391 12.9234 15.7557 13.2067 15.4141 13.2067C15.0724 13.2067 14.7891 12.9234 14.7891 12.5817V9.24841C14.7891 8.90675 15.0724 8.62341 15.4141 8.62341C15.7557 8.62341 16.0391 8.90675 16.0391 9.24841V12.5817Z" fill="white" style="fill:white;fill-opacity:1;"/>
  <path d="M4.16927 12.5817C2.3276 12.5817 0.835938 14.0733 0.835938 15.915C0.835938 16.54 1.01094 17.1317 1.31927 17.6317C1.89427 18.5983 2.9526 19.2483 4.16927 19.2483C5.38594 19.2483 6.44427 18.5983 7.01927 17.6317C7.3276 17.1317 7.5026 16.54 7.5026 15.915C7.5026 14.0733 6.01094 12.5817 4.16927 12.5817ZM5.41094 16.5233H4.79427V17.1733C4.79427 17.515 4.51094 17.7983 4.16927 17.7983C3.8276 17.7983 3.54427 17.515 3.54427 17.1733V16.5233H2.9276C2.58594 16.5233 2.3026 16.24 2.3026 15.8983C2.3026 15.5567 2.58594 15.2733 2.9276 15.2733H3.54427V14.6817C3.54427 14.34 3.8276 14.0567 4.16927 14.0567C4.51094 14.0567 4.79427 14.34 4.79427 14.6817V15.2733H5.41094C5.7526 15.2733 6.03594 15.5567 6.03594 15.8983C6.03594 16.24 5.76094 16.5233 5.41094 16.5233Z" fill="white" style="fill:white;fill-opacity:1;"/>
</svg>