<svg xmlns="http://www.w3.org/2000/svg" width="21" height="21" viewBox="0 0 21 21" fill="none">
  <path d="M14.2988 3.66333H5.9655C3.46549 3.66333 1.79883 4.91333 1.79883 7.83V10.7967C1.79883 11.105 2.11549 11.2967 2.39049 11.1717C3.20716 10.7967 4.14883 10.655 5.1405 10.83C7.33216 11.2217 8.9405 13.255 8.88216 15.48C8.87383 15.83 8.82383 16.1717 8.73216 16.505C8.66549 16.7633 8.87383 17.005 9.1405 17.005H14.2988C16.7988 17.005 18.4655 15.755 18.4655 12.8383V7.83C18.4655 4.91333 16.7988 3.66333 14.2988 3.66333ZM10.1322 12.4133C8.98216 12.4133 8.04883 11.48 8.04883 10.33C8.04883 9.18 8.98216 8.24666 10.1322 8.24666C11.2822 8.24666 12.2155 9.18 12.2155 10.33C12.2155 11.48 11.2822 12.4133 10.1322 12.4133ZM16.1738 11.9967C16.1738 12.3383 15.8905 12.6217 15.5488 12.6217C15.2072 12.6217 14.9238 12.3383 14.9238 11.9967V8.66333C14.9238 8.32166 15.2072 8.03833 15.5488 8.03833C15.8905 8.03833 16.1738 8.32166 16.1738 8.66333V11.9967Z" fill="#000D33" style="fill:#000D33;fill:color(display-p3 0.0000 0.0498 0.2000);fill-opacity:1;"/>
  <path d="M4.30013 11.9968C2.45846 11.9968 0.966797 13.4885 0.966797 15.3302C0.966797 15.9552 1.1418 16.5468 1.45013 17.0468C2.02513 18.0135 3.08346 18.6635 4.30013 18.6635C5.5168 18.6635 6.57513 18.0135 7.15013 17.0468C7.45846 16.5468 7.63346 15.9552 7.63346 15.3302C7.63346 13.4885 6.1418 11.9968 4.30013 11.9968ZM5.5418 15.9385H4.92513V16.5885C4.92513 16.9302 4.6418 17.2135 4.30013 17.2135C3.95846 17.2135 3.67513 16.9302 3.67513 16.5885V15.9385H3.05846C2.7168 15.9385 2.43346 15.6552 2.43346 15.3135C2.43346 14.9718 2.7168 14.6885 3.05846 14.6885H3.67513V14.0968C3.67513 13.7552 3.95846 13.4718 4.30013 13.4718C4.6418 13.4718 4.92513 13.7552 4.92513 14.0968V14.6885H5.5418C5.88346 14.6885 6.1668 14.9718 6.1668 15.3135C6.1668 15.6552 5.8918 15.9385 5.5418 15.9385Z" fill="#000D33" style="fill:#000D33;fill:color(display-p3 0.0000 0.0498 0.2000);fill-opacity:1;"/>
</svg>