<svg xmlns="http://www.w3.org/2000/svg" width="20" height="21" viewBox="0 0 20 21" fill="none">
  <path d="M6.6665 10.6123H12.4998" stroke="#333333" style="stroke:#333333;stroke:color(display-p3 0.2000 0.2000 0.2000);stroke-opacity:1;" stroke-width="1.5" stroke-miterlimit="10" stroke-linecap="round" stroke-linejoin="round"/>
  <path d="M6.6665 13.9458H10.3165" stroke="#333333" style="stroke:#333333;stroke:color(display-p3 0.2000 0.2000 0.2000);stroke-opacity:1;" stroke-width="1.5" stroke-miterlimit="10" stroke-linecap="round" stroke-linejoin="round"/>
  <path d="M8.33317 5.44564H11.6665C13.3332 5.44564 13.3332 4.6123 13.3332 3.77897C13.3332 2.1123 12.4998 2.1123 11.6665 2.1123H8.33317C7.49984 2.1123 6.6665 2.1123 6.6665 3.77897C6.6665 5.44564 7.49984 5.44564 8.33317 5.44564Z" stroke="#333333" style="stroke:#333333;stroke:color(display-p3 0.2000 0.2000 0.2000);stroke-opacity:1;" stroke-width="1.5" stroke-miterlimit="10" stroke-linecap="round" stroke-linejoin="round"/>
  <path d="M13.3333 3.7959C16.1083 3.9459 17.5 4.9709 17.5 8.77923V13.7792C17.5 17.1126 16.6667 18.7792 12.5 18.7792H7.5C3.33333 18.7792 2.5 17.1126 2.5 13.7792V8.77923C2.5 4.97923 3.89167 3.9459 6.66667 3.7959" stroke="#333333" style="stroke:#333333;stroke:color(display-p3 0.2000 0.2000 0.2000);stroke-opacity:1;" stroke-width="1.5" stroke-miterlimit="10" stroke-linecap="round" stroke-linejoin="round"/>
</svg>