<svg xmlns="http://www.w3.org/2000/svg" width="20" height="21" viewBox="0 0 20 21" fill="none">
  <path d="M15.0004 6.41255C14.9504 6.40422 14.8921 6.40422 14.8421 6.41255C13.6921 6.37089 12.7754 5.42922 12.7754 4.26255C12.7754 3.07088 13.7337 2.11255 14.9254 2.11255C16.1171 2.11255 17.0754 3.07922 17.0754 4.26255C17.0671 5.42922 16.1504 6.37089 15.0004 6.41255Z" stroke="#333333" style="stroke:#333333;stroke:color(display-p3 0.2000 0.2000 0.2000);stroke-opacity:1;" stroke-width="1.5" stroke-linecap="round" stroke-linejoin="round"/>
  <path d="M14.1422 12.4791C15.2839 12.6708 16.5422 12.4708 17.4255 11.8791C18.6005 11.0958 18.6005 9.81244 17.4255 9.02911C16.5339 8.43744 15.2589 8.23743 14.1172 8.43743" stroke="#333333" style="stroke:#333333;stroke:color(display-p3 0.2000 0.2000 0.2000);stroke-opacity:1;" stroke-width="1.5" stroke-linecap="round" stroke-linejoin="round"/>
  <path d="M4.97539 6.41255C5.02539 6.40422 5.08372 6.40422 5.13372 6.41255C6.28372 6.37089 7.20039 5.42922 7.20039 4.26255C7.20039 3.07088 6.24206 2.11255 5.05039 2.11255C3.85873 2.11255 2.90039 3.07922 2.90039 4.26255C2.90872 5.42922 3.82539 6.37089 4.97539 6.41255Z" stroke="#333333" style="stroke:#333333;stroke:color(display-p3 0.2000 0.2000 0.2000);stroke-opacity:1;" stroke-width="1.5" stroke-linecap="round" stroke-linejoin="round"/>
  <path d="M5.83353 12.4791C4.69186 12.6708 3.43353 12.4708 2.5502 11.8791C1.3752 11.0958 1.3752 9.81244 2.5502 9.02911C3.44186 8.43744 4.71686 8.23743 5.85853 8.43743" stroke="#333333" style="stroke:#333333;stroke:color(display-p3 0.2000 0.2000 0.2000);stroke-opacity:1;" stroke-width="1.5" stroke-linecap="round" stroke-linejoin="round"/>
  <path d="M9.99941 12.6374C9.94941 12.6291 9.89108 12.6291 9.84108 12.6374C8.69108 12.5957 7.77441 11.6541 7.77441 10.4874C7.77441 9.29574 8.73275 8.3374 9.92441 8.3374C11.1161 8.3374 12.0744 9.30407 12.0744 10.4874C12.0661 11.6541 11.1494 12.6041 9.99941 12.6374Z" stroke="#333333" style="stroke:#333333;stroke:color(display-p3 0.2000 0.2000 0.2000);stroke-opacity:1;" stroke-width="1.5" stroke-linecap="round" stroke-linejoin="round"/>
  <path d="M7.57461 15.2624C6.39961 16.0457 6.39961 17.329 7.57461 18.1124C8.90794 19.004 11.0913 19.004 12.4246 18.1124C13.5996 17.329 13.5996 16.0457 12.4246 15.2624C11.0996 14.379 8.90794 14.379 7.57461 15.2624Z" stroke="#333333" style="stroke:#333333;stroke:color(display-p3 0.2000 0.2000 0.2000);stroke-opacity:1;" stroke-width="1.5" stroke-linecap="round" stroke-linejoin="round"/>
</svg>