<svg xmlns="http://www.w3.org/2000/svg" width="24" height="25" viewBox="0 0 24 25" fill="none">
  <path d="M4.40476 15.9722L8.93476 20.5022C10.7948 22.3622 13.8148 22.3622 15.6848 20.5022L20.0748 16.1122C21.9348 14.2522 21.9348 11.2322 20.0748 9.36217L15.5348 4.84217C14.5848 3.89217 13.2748 3.38217 11.9348 3.45217L6.93476 3.69217C4.93476 3.78217 3.34476 5.37217 3.24476 7.36217L3.00476 12.3622C2.94476 13.7122 3.45476 15.0222 4.40476 15.9722Z" stroke="#333333" style="stroke:#333333;stroke:color(display-p3 0.2000 0.2000 0.2000);stroke-opacity:1;" stroke-width="1.5" stroke-linecap="round" stroke-linejoin="round"/>
  <path d="M9.73486 12.6724C11.1156 12.6724 12.2349 11.5531 12.2349 10.1724C12.2349 8.79165 11.1156 7.67236 9.73486 7.67236C8.35415 7.67236 7.23486 8.79165 7.23486 10.1724C7.23486 11.5531 8.35415 12.6724 9.73486 12.6724Z" stroke="#333333" style="stroke:#333333;stroke:color(display-p3 0.2000 0.2000 0.2000);stroke-opacity:1;" stroke-width="1.5" stroke-linecap="round"/>
  <path d="M13.2349 17.6724L17.2349 13.6724" stroke="#333333" style="stroke:#333333;stroke:color(display-p3 0.2000 0.2000 0.2000);stroke-opacity:1;" stroke-width="1.5" stroke-miterlimit="10" stroke-linecap="round" stroke-linejoin="round"/>
</svg>