<svg xmlns="http://www.w3.org/2000/svg" width="20" height="21" viewBox="0 0 20 21" fill="none">
  <path d="M18.3333 12.9458C18.3333 16.1708 15.725 18.7791 12.5 18.7791L13.375 17.3208" stroke="#333333" style="stroke:#333333;stroke:color(display-p3 0.2000 0.2000 0.2000);stroke-opacity:1;" stroke-width="1.5" stroke-linecap="round" stroke-linejoin="round"/>
  <path d="M1.6665 7.94564C1.6665 4.72064 4.27484 2.1123 7.49984 2.1123L6.62483 3.57064" stroke="#333333" style="stroke:#333333;stroke:color(display-p3 0.2000 0.2000 0.2000);stroke-opacity:1;" stroke-width="1.5" stroke-linecap="round" stroke-linejoin="round"/>
  <path d="M11.4165 4.15381L14.7332 6.07047L18.0165 4.16215" stroke="#333333" style="stroke:#333333;stroke:color(display-p3 0.2000 0.2000 0.2000);stroke-opacity:1;" stroke-width="1.5" stroke-linecap="round" stroke-linejoin="round"/>
  <path d="M14.7334 9.46203V6.06201" stroke="#333333" style="stroke:#333333;stroke:color(display-p3 0.2000 0.2000 0.2000);stroke-opacity:1;" stroke-width="1.5" stroke-linecap="round" stroke-linejoin="round"/>
  <path d="M13.95 2.2873L11.95 3.3956C11.5 3.6456 11.125 4.27893 11.125 4.7956V6.91229C11.125 7.42896 11.4917 8.06229 11.95 8.31229L13.95 9.42064C14.375 9.6623 15.075 9.6623 15.5083 9.42064L17.5083 8.31229C17.9583 8.06229 18.3333 7.42896 18.3333 6.91229V4.7956C18.3333 4.27893 17.9667 3.6456 17.5083 3.3956L15.5083 2.2873C15.0833 2.05397 14.3833 2.05397 13.95 2.2873Z" stroke="#333333" style="stroke:#333333;stroke:color(display-p3 0.2000 0.2000 0.2000);stroke-opacity:1;" stroke-width="1.5" stroke-linecap="round" stroke-linejoin="round"/>
  <path d="M1.95801 13.3208L5.26634 15.2375L8.55801 13.3291" stroke="#333333" style="stroke:#333333;stroke:color(display-p3 0.2000 0.2000 0.2000);stroke-opacity:1;" stroke-width="1.5" stroke-linecap="round" stroke-linejoin="round"/>
  <path d="M5.26611 18.629V15.229" stroke="#333333" style="stroke:#333333;stroke:color(display-p3 0.2000 0.2000 0.2000);stroke-opacity:1;" stroke-width="1.5" stroke-linecap="round" stroke-linejoin="round"/>
  <path d="M4.4915 11.4543L2.49151 12.5626C2.04151 12.8126 1.6665 13.4459 1.6665 13.9626V16.0793C1.6665 16.596 2.03318 17.2293 2.49151 17.4793L4.4915 18.5876C4.9165 18.8293 5.6165 18.8293 6.04983 18.5876L8.04984 17.4793C8.49984 17.2293 8.87483 16.596 8.87483 16.0793V13.9626C8.87483 13.4459 8.50817 12.8126 8.04984 12.5626L6.04983 11.4543C5.6165 11.221 4.9165 11.221 4.4915 11.4543Z" stroke="#333333" style="stroke:#333333;stroke:color(display-p3 0.2000 0.2000 0.2000);stroke-opacity:1;" stroke-width="1.5" stroke-linecap="round" stroke-linejoin="round"/>
</svg>