<svg xmlns="http://www.w3.org/2000/svg" width="20" height="21" viewBox="0 0 20 21" fill="none">
  <path d="M7.49984 18.779H12.4998C16.6665 18.779 18.3332 17.1123 18.3332 12.9456V7.94564C18.3332 3.77897 16.6665 2.1123 12.4998 2.1123H7.49984C3.33317 2.1123 1.6665 3.77897 1.6665 7.94564V12.9456C1.6665 17.1123 3.33317 18.779 7.49984 18.779Z" stroke="#333333" style="stroke:#333333;stroke:color(display-p3 0.2000 0.2000 0.2000);stroke-opacity:1;" stroke-width="1.5" stroke-linecap="round" stroke-linejoin="round"/>
  <path d="M15 6.90397V12.529C15 11.6123 14.25 10.8623 13.3333 10.8623H6.66667C5.75 10.8623 5 11.6123 5 12.529V6.90397C5 5.9873 5.75 5.2373 6.66667 5.2373H13.3333C14.25 5.2373 15 5.9873 15 6.90397Z" stroke="#333333" style="stroke:#333333;stroke:color(display-p3 0.2000 0.2000 0.2000);stroke-opacity:1;" stroke-width="1.5" stroke-linecap="round" stroke-linejoin="round"/>
  <path d="M15.8333 13.5708H15" stroke="#333333" style="stroke:#333333;stroke:color(display-p3 0.2000 0.2000 0.2000);stroke-opacity:1;" stroke-width="1.5" stroke-linecap="round" stroke-linejoin="round"/>
  <path d="M4.99984 13.5708H4.1665" stroke="#333333" style="stroke:#333333;stroke:color(display-p3 0.2000 0.2000 0.2000);stroke-opacity:1;" stroke-width="1.5" stroke-linecap="round" stroke-linejoin="round"/>
  <path d="M15 12.1125V9.61247C15 8.6958 14.25 7.9458 13.3333 7.9458H6.66667C5.75 7.9458 5 8.6958 5 9.61247V12.1125" stroke="#333333" style="stroke:#333333;stroke:color(display-p3 0.2000 0.2000 0.2000);stroke-opacity:1;" stroke-width="1.5" stroke-linecap="round" stroke-linejoin="round"/>
  <path d="M15 12.529V13.5706H12.0833C12.0833 14.7206 11.15 15.654 10 15.654C8.85 15.654 7.91667 14.7206 7.91667 13.5706H5V12.529C5 11.6123 5.75 10.8623 6.66667 10.8623H13.3333C14.25 10.8623 15 11.6123 15 12.529Z" stroke="#333333" style="stroke:#333333;stroke:color(display-p3 0.2000 0.2000 0.2000);stroke-opacity:1;" stroke-width="1.5" stroke-linecap="round" stroke-linejoin="round"/>
</svg>